<?xml version="1.0" encoding="utf-8" standalone="no"?>
<!DOCTYPE svg PUBLIC "-//W3C//DTD SVG 1.1//EN"
  "http://www.w3.org/Graphics/SVG/1.1/DTD/svg11.dtd">
<svg xmlns:xlink="http://www.w3.org/1999/xlink" width="856.495625pt" height="228.122062pt" viewBox="0 0 856.495625 228.122062" xmlns="http://www.w3.org/2000/svg" version="1.1">
 <metadata>
  <rdf:RDF xmlns:dc="http://purl.org/dc/elements/1.1/" xmlns:cc="http://creativecommons.org/ns#" xmlns:rdf="http://www.w3.org/1999/02/22-rdf-syntax-ns#">
   <cc:Work>
    <dc:type rdf:resource="http://purl.org/dc/dcmitype/StillImage"/>
    <dc:date>2026-04-27T07:56:05.665391</dc:date>
    <dc:format>image/svg+xml</dc:format>
    <dc:creator>
     <cc:Agent>
      <dc:title>Matplotlib v3.10.9, https://matplotlib.org/</dc:title>
     </cc:Agent>
    </dc:creator>
   </cc:Work>
  </rdf:RDF>
 </metadata>
 <defs>
  <style type="text/css">*{stroke-linejoin: round; stroke-linecap: butt}</style>
 </defs>
 <g id="figure_1">
  <g id="patch_1">
   <path d="M 0 228.122062 
L 856.495625 228.122062 
L 856.495625 0 
L 0 0 
z
" style="fill: #ffffff"/>
  </g>
  <g id="axes_1">
   <g id="patch_2">
    <path d="M 46.965625 179.368 
L 295.488958 179.368 
L 295.488958 68.208 
L 46.965625 68.208 
z
" style="fill: #ffffff"/>
   </g>
   <g id="patch_3">
    <path d="M 58.26214 179.368 
L 71.552158 179.368 
L 71.552158 175.883361 
L 58.26214 175.883361 
z
" clip-path="url(#pf7353ab46d)" style="fill: #2e5c8a; stroke: #ffffff; stroke-linejoin: miter"/>
   </g>
   <g id="patch_4">
    <path d="M 71.552158 179.368 
L 84.842176 179.368 
L 84.842176 178.870194 
L 71.552158 178.870194 
z
" clip-path="url(#pf7353ab46d)" style="fill: #2e5c8a; stroke: #ffffff; stroke-linejoin: miter"/>
   </g>
   <g id="patch_5">
    <path d="M 84.842176 179.368 
L 98.132194 179.368 
L 98.132194 170.075628 
L 84.842176 170.075628 
z
" clip-path="url(#pf7353ab46d)" style="fill: #2e5c8a; stroke: #ffffff; stroke-linejoin: miter"/>
   </g>
   <g id="patch_6">
    <path d="M 98.132194 179.368 
L 111.422211 179.368 
L 111.422211 176.381166 
L 98.132194 176.381166 
z
" clip-path="url(#pf7353ab46d)" style="fill: #2e5c8a; stroke: #ffffff; stroke-linejoin: miter"/>
   </g>
   <g id="patch_7">
    <path d="M 111.422211 179.368 
L 124.712229 179.368 
L 124.712229 159.289839 
L 111.422211 159.289839 
z
" clip-path="url(#pf7353ab46d)" style="fill: #2e5c8a; stroke: #ffffff; stroke-linejoin: miter"/>
   </g>
   <g id="patch_8">
    <path d="M 124.712229 179.368 
L 138.002247 179.368 
L 138.002247 175.55149 
L 124.712229 175.55149 
z
" clip-path="url(#pf7353ab46d)" style="fill: #2e5c8a; stroke: #ffffff; stroke-linejoin: miter"/>
   </g>
   <g id="patch_9">
    <path d="M 138.002247 179.368 
L 151.292265 179.368 
L 151.292265 119.299452 
L 138.002247 119.299452 
z
" clip-path="url(#pf7353ab46d)" style="fill: #2e5c8a; stroke: #ffffff; stroke-linejoin: miter"/>
   </g>
   <g id="patch_10">
    <path d="M 151.292265 179.368 
L 164.582283 179.368 
L 164.582283 162.442608 
L 151.292265 162.442608 
z
" clip-path="url(#pf7353ab46d)" style="fill: #2e5c8a; stroke: #ffffff; stroke-linejoin: miter"/>
   </g>
   <g id="patch_11">
    <path d="M 164.582283 179.368 
L 177.872301 179.368 
L 177.872301 73.501333 
L 164.582283 73.501333 
z
" clip-path="url(#pf7353ab46d)" style="fill: #2e5c8a; stroke: #ffffff; stroke-linejoin: miter"/>
   </g>
   <g id="patch_12">
    <path d="M 177.872301 179.368 
L 191.162318 179.368 
L 191.162318 160.949191 
L 177.872301 160.949191 
z
" clip-path="url(#pf7353ab46d)" style="fill: #2e5c8a; stroke: #ffffff; stroke-linejoin: miter"/>
   </g>
   <g id="patch_13">
    <path d="M 191.162318 179.368 
L 204.452336 179.368 
L 204.452336 161.281062 
L 191.162318 161.281062 
z
" clip-path="url(#pf7353ab46d)" style="fill: #2e5c8a; stroke: #ffffff; stroke-linejoin: miter"/>
   </g>
   <g id="patch_14">
    <path d="M 204.452336 179.368 
L 217.742354 179.368 
L 217.742354 178.040518 
L 204.452336 178.040518 
z
" clip-path="url(#pf7353ab46d)" style="fill: #2e5c8a; stroke: #ffffff; stroke-linejoin: miter"/>
   </g>
   <g id="patch_15">
    <path d="M 217.742354 179.368 
L 231.032372 179.368 
L 231.032372 177.044907 
L 217.742354 177.044907 
z
" clip-path="url(#pf7353ab46d)" style="fill: #2e5c8a; stroke: #ffffff; stroke-linejoin: miter"/>
   </g>
   <g id="patch_16">
    <path d="M 231.032372 179.368 
L 244.32239 179.368 
L 244.32239 179.03613 
L 231.032372 179.03613 
z
" clip-path="url(#pf7353ab46d)" style="fill: #2e5c8a; stroke: #ffffff; stroke-linejoin: miter"/>
   </g>
   <g id="patch_17">
    <path d="M 244.32239 179.368 
L 257.612408 179.368 
L 257.612408 179.03613 
L 244.32239 179.03613 
z
" clip-path="url(#pf7353ab46d)" style="fill: #2e5c8a; stroke: #ffffff; stroke-linejoin: miter"/>
   </g>
   <g id="patch_18">
    <path d="M 257.612408 179.368 
L 270.902425 179.368 
L 270.902425 179.368 
L 257.612408 179.368 
z
" clip-path="url(#pf7353ab46d)" style="fill: #2e5c8a; stroke: #ffffff; stroke-linejoin: miter"/>
   </g>
   <g id="patch_19">
    <path d="M 270.902425 179.368 
L 284.192443 179.368 
L 284.192443 179.202065 
L 270.902425 179.202065 
z
" clip-path="url(#pf7353ab46d)" style="fill: #2e5c8a; stroke: #ffffff; stroke-linejoin: miter"/>
   </g>
   <g id="matplotlib.axis_1">
    <g id="xtick_1">
     <g id="line2d_1">
      <defs>
       <path id="m5a9e6679d1" d="M 0 0 
L 0 3.5 
" style="stroke: #000000; stroke-width: 0.8"/>
      </defs>
      <g>
       <use xlink:href="#m5a9e6679d1" x="71.552158" y="179.368" style="stroke: #000000; stroke-width: 0.8"/>
      </g>
     </g>
     <g id="text_1">
      <!-- −7.5 -->
      <g transform="translate(59.410752 193.966437) scale(0.1 -0.1)">
       <defs>
        <path id="DejaVuSans-2212" d="M 678 2272 
L 4684 2272 
L 4684 1741 
L 678 1741 
L 678 2272 
z
" transform="scale(0.015625)"/>
        <path id="DejaVuSans-37" d="M 525 4666 
L 3525 4666 
L 3525 4397 
L 1831 0 
L 1172 0 
L 2766 4134 
L 525 4134 
L 525 4666 
z
" transform="scale(0.015625)"/>
        <path id="DejaVuSans-2e" d="M 684 794 
L 1344 794 
L 1344 0 
L 684 0 
L 684 794 
z
" transform="scale(0.015625)"/>
        <path id="DejaVuSans-35" d="M 691 4666 
L 3169 4666 
L 3169 4134 
L 1269 4134 
L 1269 2991 
Q 1406 3038 1543 3061 
Q 1681 3084 1819 3084 
Q 2600 3084 3056 2656 
Q 3513 2228 3513 1497 
Q 3513 744 3044 326 
Q 2575 -91 1722 -91 
Q 1428 -91 1123 -41 
Q 819 9 494 109 
L 494 744 
Q 775 591 1075 516 
Q 1375 441 1709 441 
Q 2250 441 2565 725 
Q 2881 1009 2881 1497 
Q 2881 1984 2565 2268 
Q 2250 2553 1709 2553 
Q 1456 2553 1204 2497 
Q 953 2441 691 2322 
L 691 4666 
z
" transform="scale(0.015625)"/>
       </defs>
       <use xlink:href="#DejaVuSans-2212"/>
       <use xlink:href="#DejaVuSans-37" transform="translate(83.789062 0)"/>
       <use xlink:href="#DejaVuSans-2e" transform="translate(147.412109 0)"/>
       <use xlink:href="#DejaVuSans-35" transform="translate(179.199219 0)"/>
      </g>
     </g>
    </g>
    <g id="xtick_2">
     <g id="line2d_2">
      <g>
       <use xlink:href="#m5a9e6679d1" x="104.777203" y="179.368" style="stroke: #000000; stroke-width: 0.8"/>
      </g>
     </g>
     <g id="text_2">
      <!-- −5.0 -->
      <g transform="translate(92.635796 193.966437) scale(0.1 -0.1)">
       <defs>
        <path id="DejaVuSans-30" d="M 2034 4250 
Q 1547 4250 1301 3770 
Q 1056 3291 1056 2328 
Q 1056 1369 1301 889 
Q 1547 409 2034 409 
Q 2525 409 2770 889 
Q 3016 1369 3016 2328 
Q 3016 3291 2770 3770 
Q 2525 4250 2034 4250 
z
M 2034 4750 
Q 2819 4750 3233 4129 
Q 3647 3509 3647 2328 
Q 3647 1150 3233 529 
Q 2819 -91 2034 -91 
Q 1250 -91 836 529 
Q 422 1150 422 2328 
Q 422 3509 836 4129 
Q 1250 4750 2034 4750 
z
" transform="scale(0.015625)"/>
       </defs>
       <use xlink:href="#DejaVuSans-2212"/>
       <use xlink:href="#DejaVuSans-35" transform="translate(83.789062 0)"/>
       <use xlink:href="#DejaVuSans-2e" transform="translate(147.412109 0)"/>
       <use xlink:href="#DejaVuSans-30" transform="translate(179.199219 0)"/>
      </g>
     </g>
    </g>
    <g id="xtick_3">
     <g id="line2d_3">
      <g>
       <use xlink:href="#m5a9e6679d1" x="138.002247" y="179.368" style="stroke: #000000; stroke-width: 0.8"/>
      </g>
     </g>
     <g id="text_3">
      <!-- −2.5 -->
      <g transform="translate(125.860841 193.966437) scale(0.1 -0.1)">
       <defs>
        <path id="DejaVuSans-32" d="M 1228 531 
L 3431 531 
L 3431 0 
L 469 0 
L 469 531 
Q 828 903 1448 1529 
Q 2069 2156 2228 2338 
Q 2531 2678 2651 2914 
Q 2772 3150 2772 3378 
Q 2772 3750 2511 3984 
Q 2250 4219 1831 4219 
Q 1534 4219 1204 4116 
Q 875 4013 500 3803 
L 500 4441 
Q 881 4594 1212 4672 
Q 1544 4750 1819 4750 
Q 2544 4750 2975 4387 
Q 3406 4025 3406 3419 
Q 3406 3131 3298 2873 
Q 3191 2616 2906 2266 
Q 2828 2175 2409 1742 
Q 1991 1309 1228 531 
z
" transform="scale(0.015625)"/>
       </defs>
       <use xlink:href="#DejaVuSans-2212"/>
       <use xlink:href="#DejaVuSans-32" transform="translate(83.789062 0)"/>
       <use xlink:href="#DejaVuSans-2e" transform="translate(147.412109 0)"/>
       <use xlink:href="#DejaVuSans-35" transform="translate(179.199219 0)"/>
      </g>
     </g>
    </g>
    <g id="xtick_4">
     <g id="line2d_4">
      <g>
       <use xlink:href="#m5a9e6679d1" x="171.227292" y="179.368" style="stroke: #000000; stroke-width: 0.8"/>
      </g>
     </g>
     <g id="text_4">
      <!-- 0.0 -->
      <g transform="translate(163.275729 193.966437) scale(0.1 -0.1)">
       <use xlink:href="#DejaVuSans-30"/>
       <use xlink:href="#DejaVuSans-2e" transform="translate(63.623047 0)"/>
       <use xlink:href="#DejaVuSans-30" transform="translate(95.410156 0)"/>
      </g>
     </g>
    </g>
    <g id="xtick_5">
     <g id="line2d_5">
      <g>
       <use xlink:href="#m5a9e6679d1" x="204.452336" y="179.368" style="stroke: #000000; stroke-width: 0.8"/>
      </g>
     </g>
     <g id="text_5">
      <!-- 2.5 -->
      <g transform="translate(196.500774 193.966437) scale(0.1 -0.1)">
       <use xlink:href="#DejaVuSans-32"/>
       <use xlink:href="#DejaVuSans-2e" transform="translate(63.623047 0)"/>
       <use xlink:href="#DejaVuSans-35" transform="translate(95.410156 0)"/>
      </g>
     </g>
    </g>
    <g id="xtick_6">
     <g id="line2d_6">
      <g>
       <use xlink:href="#m5a9e6679d1" x="237.677381" y="179.368" style="stroke: #000000; stroke-width: 0.8"/>
      </g>
     </g>
     <g id="text_6">
      <!-- 5.0 -->
      <g transform="translate(229.725818 193.966437) scale(0.1 -0.1)">
       <use xlink:href="#DejaVuSans-35"/>
       <use xlink:href="#DejaVuSans-2e" transform="translate(63.623047 0)"/>
       <use xlink:href="#DejaVuSans-30" transform="translate(95.410156 0)"/>
      </g>
     </g>
    </g>
    <g id="xtick_7">
     <g id="line2d_7">
      <g>
       <use xlink:href="#m5a9e6679d1" x="270.902425" y="179.368" style="stroke: #000000; stroke-width: 0.8"/>
      </g>
     </g>
     <g id="text_7">
      <!-- 7.5 -->
      <g transform="translate(262.950863 193.966437) scale(0.1 -0.1)">
       <use xlink:href="#DejaVuSans-37"/>
       <use xlink:href="#DejaVuSans-2e" transform="translate(63.623047 0)"/>
       <use xlink:href="#DejaVuSans-35" transform="translate(95.410156 0)"/>
      </g>
     </g>
    </g>
    <g id="text_8">
     <!-- First violation turn − first prediction turn -->
     <g transform="translate(70.15776 207.644562) scale(0.1 -0.1)">
      <defs>
       <path id="DejaVuSans-46" d="M 628 4666 
L 3309 4666 
L 3309 4134 
L 1259 4134 
L 1259 2759 
L 3109 2759 
L 3109 2228 
L 1259 2228 
L 1259 0 
L 628 0 
L 628 4666 
z
" transform="scale(0.015625)"/>
       <path id="DejaVuSans-69" d="M 603 3500 
L 1178 3500 
L 1178 0 
L 603 0 
L 603 3500 
z
M 603 4863 
L 1178 4863 
L 1178 4134 
L 603 4134 
L 603 4863 
z
" transform="scale(0.015625)"/>
       <path id="DejaVuSans-72" d="M 2631 2963 
Q 2534 3019 2420 3045 
Q 2306 3072 2169 3072 
Q 1681 3072 1420 2755 
Q 1159 2438 1159 1844 
L 1159 0 
L 581 0 
L 581 3500 
L 1159 3500 
L 1159 2956 
Q 1341 3275 1631 3429 
Q 1922 3584 2338 3584 
Q 2397 3584 2469 3576 
Q 2541 3569 2628 3553 
L 2631 2963 
z
" transform="scale(0.015625)"/>
       <path id="DejaVuSans-73" d="M 2834 3397 
L 2834 2853 
Q 2591 2978 2328 3040 
Q 2066 3103 1784 3103 
Q 1356 3103 1142 2972 
Q 928 2841 928 2578 
Q 928 2378 1081 2264 
Q 1234 2150 1697 2047 
L 1894 2003 
Q 2506 1872 2764 1633 
Q 3022 1394 3022 966 
Q 3022 478 2636 193 
Q 2250 -91 1575 -91 
Q 1294 -91 989 -36 
Q 684 19 347 128 
L 347 722 
Q 666 556 975 473 
Q 1284 391 1588 391 
Q 1994 391 2212 530 
Q 2431 669 2431 922 
Q 2431 1156 2273 1281 
Q 2116 1406 1581 1522 
L 1381 1569 
Q 847 1681 609 1914 
Q 372 2147 372 2553 
Q 372 3047 722 3315 
Q 1072 3584 1716 3584 
Q 2034 3584 2315 3537 
Q 2597 3491 2834 3397 
z
" transform="scale(0.015625)"/>
       <path id="DejaVuSans-74" d="M 1172 4494 
L 1172 3500 
L 2356 3500 
L 2356 3053 
L 1172 3053 
L 1172 1153 
Q 1172 725 1289 603 
Q 1406 481 1766 481 
L 2356 481 
L 2356 0 
L 1766 0 
Q 1100 0 847 248 
Q 594 497 594 1153 
L 594 3053 
L 172 3053 
L 172 3500 
L 594 3500 
L 594 4494 
L 1172 4494 
z
" transform="scale(0.015625)"/>
       <path id="DejaVuSans-20" transform="scale(0.015625)"/>
       <path id="DejaVuSans-76" d="M 191 3500 
L 800 3500 
L 1894 563 
L 2988 3500 
L 3597 3500 
L 2284 0 
L 1503 0 
L 191 3500 
z
" transform="scale(0.015625)"/>
       <path id="DejaVuSans-6f" d="M 1959 3097 
Q 1497 3097 1228 2736 
Q 959 2375 959 1747 
Q 959 1119 1226 758 
Q 1494 397 1959 397 
Q 2419 397 2687 759 
Q 2956 1122 2956 1747 
Q 2956 2369 2687 2733 
Q 2419 3097 1959 3097 
z
M 1959 3584 
Q 2709 3584 3137 3096 
Q 3566 2609 3566 1747 
Q 3566 888 3137 398 
Q 2709 -91 1959 -91 
Q 1206 -91 779 398 
Q 353 888 353 1747 
Q 353 2609 779 3096 
Q 1206 3584 1959 3584 
z
" transform="scale(0.015625)"/>
       <path id="DejaVuSans-6c" d="M 603 4863 
L 1178 4863 
L 1178 0 
L 603 0 
L 603 4863 
z
" transform="scale(0.015625)"/>
       <path id="DejaVuSans-61" d="M 2194 1759 
Q 1497 1759 1228 1600 
Q 959 1441 959 1056 
Q 959 750 1161 570 
Q 1363 391 1709 391 
Q 2188 391 2477 730 
Q 2766 1069 2766 1631 
L 2766 1759 
L 2194 1759 
z
M 3341 1997 
L 3341 0 
L 2766 0 
L 2766 531 
Q 2569 213 2275 61 
Q 1981 -91 1556 -91 
Q 1019 -91 701 211 
Q 384 513 384 1019 
Q 384 1609 779 1909 
Q 1175 2209 1959 2209 
L 2766 2209 
L 2766 2266 
Q 2766 2663 2505 2880 
Q 2244 3097 1772 3097 
Q 1472 3097 1187 3025 
Q 903 2953 641 2809 
L 641 3341 
Q 956 3463 1253 3523 
Q 1550 3584 1831 3584 
Q 2591 3584 2966 3190 
Q 3341 2797 3341 1997 
z
" transform="scale(0.015625)"/>
       <path id="DejaVuSans-6e" d="M 3513 2113 
L 3513 0 
L 2938 0 
L 2938 2094 
Q 2938 2591 2744 2837 
Q 2550 3084 2163 3084 
Q 1697 3084 1428 2787 
Q 1159 2491 1159 1978 
L 1159 0 
L 581 0 
L 581 3500 
L 1159 3500 
L 1159 2956 
Q 1366 3272 1645 3428 
Q 1925 3584 2291 3584 
Q 2894 3584 3203 3211 
Q 3513 2838 3513 2113 
z
" transform="scale(0.015625)"/>
       <path id="DejaVuSans-75" d="M 544 1381 
L 544 3500 
L 1119 3500 
L 1119 1403 
Q 1119 906 1312 657 
Q 1506 409 1894 409 
Q 2359 409 2629 706 
Q 2900 1003 2900 1516 
L 2900 3500 
L 3475 3500 
L 3475 0 
L 2900 0 
L 2900 538 
Q 2691 219 2414 64 
Q 2138 -91 1772 -91 
Q 1169 -91 856 284 
Q 544 659 544 1381 
z
M 1991 3584 
L 1991 3584 
z
" transform="scale(0.015625)"/>
       <path id="DejaVuSans-66" d="M 2375 4863 
L 2375 4384 
L 1825 4384 
Q 1516 4384 1395 4259 
Q 1275 4134 1275 3809 
L 1275 3500 
L 2222 3500 
L 2222 3053 
L 1275 3053 
L 1275 0 
L 697 0 
L 697 3053 
L 147 3053 
L 147 3500 
L 697 3500 
L 697 3744 
Q 697 4328 969 4595 
Q 1241 4863 1831 4863 
L 2375 4863 
z
" transform="scale(0.015625)"/>
       <path id="DejaVuSans-70" d="M 1159 525 
L 1159 -1331 
L 581 -1331 
L 581 3500 
L 1159 3500 
L 1159 2969 
Q 1341 3281 1617 3432 
Q 1894 3584 2278 3584 
Q 2916 3584 3314 3078 
Q 3713 2572 3713 1747 
Q 3713 922 3314 415 
Q 2916 -91 2278 -91 
Q 1894 -91 1617 61 
Q 1341 213 1159 525 
z
M 3116 1747 
Q 3116 2381 2855 2742 
Q 2594 3103 2138 3103 
Q 1681 3103 1420 2742 
Q 1159 2381 1159 1747 
Q 1159 1113 1420 752 
Q 1681 391 2138 391 
Q 2594 391 2855 752 
Q 3116 1113 3116 1747 
z
" transform="scale(0.015625)"/>
       <path id="DejaVuSans-65" d="M 3597 1894 
L 3597 1613 
L 953 1613 
Q 991 1019 1311 708 
Q 1631 397 2203 397 
Q 2534 397 2845 478 
Q 3156 559 3463 722 
L 3463 178 
Q 3153 47 2828 -22 
Q 2503 -91 2169 -91 
Q 1331 -91 842 396 
Q 353 884 353 1716 
Q 353 2575 817 3079 
Q 1281 3584 2069 3584 
Q 2775 3584 3186 3129 
Q 3597 2675 3597 1894 
z
M 3022 2063 
Q 3016 2534 2758 2815 
Q 2500 3097 2075 3097 
Q 1594 3097 1305 2825 
Q 1016 2553 972 2059 
L 3022 2063 
z
" transform="scale(0.015625)"/>
       <path id="DejaVuSans-64" d="M 2906 2969 
L 2906 4863 
L 3481 4863 
L 3481 0 
L 2906 0 
L 2906 525 
Q 2725 213 2448 61 
Q 2172 -91 1784 -91 
Q 1150 -91 751 415 
Q 353 922 353 1747 
Q 353 2572 751 3078 
Q 1150 3584 1784 3584 
Q 2172 3584 2448 3432 
Q 2725 3281 2906 2969 
z
M 947 1747 
Q 947 1113 1208 752 
Q 1469 391 1925 391 
Q 2381 391 2643 752 
Q 2906 1113 2906 1747 
Q 2906 2381 2643 2742 
Q 2381 3103 1925 3103 
Q 1469 3103 1208 2742 
Q 947 2381 947 1747 
z
" transform="scale(0.015625)"/>
       <path id="DejaVuSans-63" d="M 3122 3366 
L 3122 2828 
Q 2878 2963 2633 3030 
Q 2388 3097 2138 3097 
Q 1578 3097 1268 2742 
Q 959 2388 959 1747 
Q 959 1106 1268 751 
Q 1578 397 2138 397 
Q 2388 397 2633 464 
Q 2878 531 3122 666 
L 3122 134 
Q 2881 22 2623 -34 
Q 2366 -91 2075 -91 
Q 1284 -91 818 406 
Q 353 903 353 1747 
Q 353 2603 823 3093 
Q 1294 3584 2113 3584 
Q 2378 3584 2631 3529 
Q 2884 3475 3122 3366 
z
" transform="scale(0.015625)"/>
      </defs>
      <use xlink:href="#DejaVuSans-46"/>
      <use xlink:href="#DejaVuSans-69" transform="translate(50.269531 0)"/>
      <use xlink:href="#DejaVuSans-72" transform="translate(78.052734 0)"/>
      <use xlink:href="#DejaVuSans-73" transform="translate(119.166016 0)"/>
      <use xlink:href="#DejaVuSans-74" transform="translate(171.265625 0)"/>
      <use xlink:href="#DejaVuSans-20" transform="translate(210.474609 0)"/>
      <use xlink:href="#DejaVuSans-76" transform="translate(242.261719 0)"/>
      <use xlink:href="#DejaVuSans-69" transform="translate(301.441406 0)"/>
      <use xlink:href="#DejaVuSans-6f" transform="translate(329.224609 0)"/>
      <use xlink:href="#DejaVuSans-6c" transform="translate(390.40625 0)"/>
      <use xlink:href="#DejaVuSans-61" transform="translate(418.189453 0)"/>
      <use xlink:href="#DejaVuSans-74" transform="translate(479.46875 0)"/>
      <use xlink:href="#DejaVuSans-69" transform="translate(518.677734 0)"/>
      <use xlink:href="#DejaVuSans-6f" transform="translate(546.460938 0)"/>
      <use xlink:href="#DejaVuSans-6e" transform="translate(607.642578 0)"/>
      <use xlink:href="#DejaVuSans-20" transform="translate(671.021484 0)"/>
      <use xlink:href="#DejaVuSans-74" transform="translate(702.808594 0)"/>
      <use xlink:href="#DejaVuSans-75" transform="translate(742.017578 0)"/>
      <use xlink:href="#DejaVuSans-72" transform="translate(805.396484 0)"/>
      <use xlink:href="#DejaVuSans-6e" transform="translate(844.759766 0)"/>
      <use xlink:href="#DejaVuSans-20" transform="translate(908.138672 0)"/>
      <use xlink:href="#DejaVuSans-2212" transform="translate(939.925781 0)"/>
      <use xlink:href="#DejaVuSans-20" transform="translate(1023.714844 0)"/>
      <use xlink:href="#DejaVuSans-66" transform="translate(1055.501953 0)"/>
      <use xlink:href="#DejaVuSans-69" transform="translate(1090.707031 0)"/>
      <use xlink:href="#DejaVuSans-72" transform="translate(1118.490234 0)"/>
      <use xlink:href="#DejaVuSans-73" transform="translate(1159.603516 0)"/>
      <use xlink:href="#DejaVuSans-74" transform="translate(1211.703125 0)"/>
      <use xlink:href="#DejaVuSans-20" transform="translate(1250.912109 0)"/>
      <use xlink:href="#DejaVuSans-70" transform="translate(1282.699219 0)"/>
      <use xlink:href="#DejaVuSans-72" transform="translate(1346.175781 0)"/>
      <use xlink:href="#DejaVuSans-65" transform="translate(1385.039062 0)"/>
      <use xlink:href="#DejaVuSans-64" transform="translate(1446.5625 0)"/>
      <use xlink:href="#DejaVuSans-69" transform="translate(1510.039062 0)"/>
      <use xlink:href="#DejaVuSans-63" transform="translate(1537.822266 0)"/>
      <use xlink:href="#DejaVuSans-74" transform="translate(1592.802734 0)"/>
      <use xlink:href="#DejaVuSans-69" transform="translate(1632.011719 0)"/>
      <use xlink:href="#DejaVuSans-6f" transform="translate(1659.794922 0)"/>
      <use xlink:href="#DejaVuSans-6e" transform="translate(1720.976562 0)"/>
      <use xlink:href="#DejaVuSans-20" transform="translate(1784.355469 0)"/>
      <use xlink:href="#DejaVuSans-74" transform="translate(1816.142578 0)"/>
      <use xlink:href="#DejaVuSans-75" transform="translate(1855.351562 0)"/>
      <use xlink:href="#DejaVuSans-72" transform="translate(1918.730469 0)"/>
      <use xlink:href="#DejaVuSans-6e" transform="translate(1958.09375 0)"/>
     </g>
     <!-- ← missed       prevented → -->
     <g transform="translate(105.217135 218.842375) scale(0.1 -0.1)">
      <defs>
       <path id="DejaVuSans-2190" d="M 313 1866 
L 313 2147 
L 1541 3375 
L 1916 3000 
L 1188 2272 
L 4997 2272 
L 4997 1741 
L 1188 1741 
L 1916 1013 
L 1541 638 
L 313 1866 
z
" transform="scale(0.015625)"/>
       <path id="DejaVuSans-6d" d="M 3328 2828 
Q 3544 3216 3844 3400 
Q 4144 3584 4550 3584 
Q 5097 3584 5394 3201 
Q 5691 2819 5691 2113 
L 5691 0 
L 5113 0 
L 5113 2094 
Q 5113 2597 4934 2840 
Q 4756 3084 4391 3084 
Q 3944 3084 3684 2787 
Q 3425 2491 3425 1978 
L 3425 0 
L 2847 0 
L 2847 2094 
Q 2847 2600 2669 2842 
Q 2491 3084 2119 3084 
Q 1678 3084 1418 2786 
Q 1159 2488 1159 1978 
L 1159 0 
L 581 0 
L 581 3500 
L 1159 3500 
L 1159 2956 
Q 1356 3278 1631 3431 
Q 1906 3584 2284 3584 
Q 2666 3584 2933 3390 
Q 3200 3197 3328 2828 
z
" transform="scale(0.015625)"/>
       <path id="DejaVuSans-2192" d="M 5050 2147 
L 5050 1866 
L 3822 638 
L 3447 1013 
L 4175 1741 
L 366 1741 
L 366 2272 
L 4175 2272 
L 3447 3000 
L 3822 3375 
L 5050 2147 
z
" transform="scale(0.015625)"/>
      </defs>
      <use xlink:href="#DejaVuSans-2190"/>
      <use xlink:href="#DejaVuSans-20" transform="translate(83.789062 0)"/>
      <use xlink:href="#DejaVuSans-6d" transform="translate(115.576172 0)"/>
      <use xlink:href="#DejaVuSans-69" transform="translate(212.988281 0)"/>
      <use xlink:href="#DejaVuSans-73" transform="translate(240.771484 0)"/>
      <use xlink:href="#DejaVuSans-73" transform="translate(292.871094 0)"/>
      <use xlink:href="#DejaVuSans-65" transform="translate(344.970703 0)"/>
      <use xlink:href="#DejaVuSans-64" transform="translate(406.494141 0)"/>
      <use xlink:href="#DejaVuSans-20" transform="translate(469.970703 0)"/>
      <use xlink:href="#DejaVuSans-20" transform="translate(501.757812 0)"/>
      <use xlink:href="#DejaVuSans-20" transform="translate(533.544922 0)"/>
      <use xlink:href="#DejaVuSans-20" transform="translate(565.332031 0)"/>
      <use xlink:href="#DejaVuSans-20" transform="translate(597.119141 0)"/>
      <use xlink:href="#DejaVuSans-20" transform="translate(628.90625 0)"/>
      <use xlink:href="#DejaVuSans-20" transform="translate(660.693359 0)"/>
      <use xlink:href="#DejaVuSans-70" transform="translate(692.480469 0)"/>
      <use xlink:href="#DejaVuSans-72" transform="translate(755.957031 0)"/>
      <use xlink:href="#DejaVuSans-65" transform="translate(794.820312 0)"/>
      <use xlink:href="#DejaVuSans-76" transform="translate(856.34375 0)"/>
      <use xlink:href="#DejaVuSans-65" transform="translate(915.523438 0)"/>
      <use xlink:href="#DejaVuSans-6e" transform="translate(977.046875 0)"/>
      <use xlink:href="#DejaVuSans-74" transform="translate(1040.425781 0)"/>
      <use xlink:href="#DejaVuSans-65" transform="translate(1079.634766 0)"/>
      <use xlink:href="#DejaVuSans-64" transform="translate(1141.158203 0)"/>
      <use xlink:href="#DejaVuSans-20" transform="translate(1204.634766 0)"/>
      <use xlink:href="#DejaVuSans-2192" transform="translate(1236.421875 0)"/>
     </g>
    </g>
   </g>
   <g id="matplotlib.axis_2">
    <g id="ytick_1">
     <g id="line2d_8">
      <defs>
       <path id="mc51434b859" d="M 0 0 
L -3.5 0 
" style="stroke: #000000; stroke-width: 0.8"/>
      </defs>
      <g>
       <use xlink:href="#mc51434b859" x="46.965625" y="179.368" style="stroke: #000000; stroke-width: 0.8"/>
      </g>
     </g>
     <g id="text_9">
      <!-- 0 -->
      <g transform="translate(33.603125 183.167219) scale(0.1 -0.1)">
       <use xlink:href="#DejaVuSans-30"/>
      </g>
     </g>
    </g>
    <g id="ytick_2">
     <g id="line2d_9">
      <g>
       <use xlink:href="#mc51434b859" x="46.965625" y="146.180957" style="stroke: #000000; stroke-width: 0.8"/>
      </g>
     </g>
     <g id="text_10">
      <!-- 200 -->
      <g transform="translate(20.878125 149.980176) scale(0.1 -0.1)">
       <use xlink:href="#DejaVuSans-32"/>
       <use xlink:href="#DejaVuSans-30" transform="translate(63.623047 0)"/>
       <use xlink:href="#DejaVuSans-30" transform="translate(127.246094 0)"/>
      </g>
     </g>
    </g>
    <g id="ytick_3">
     <g id="line2d_10">
      <g>
       <use xlink:href="#mc51434b859" x="46.965625" y="112.993914" style="stroke: #000000; stroke-width: 0.8"/>
      </g>
     </g>
     <g id="text_11">
      <!-- 400 -->
      <g transform="translate(20.878125 116.793133) scale(0.1 -0.1)">
       <defs>
        <path id="DejaVuSans-34" d="M 2419 4116 
L 825 1625 
L 2419 1625 
L 2419 4116 
z
M 2253 4666 
L 3047 4666 
L 3047 1625 
L 3713 1625 
L 3713 1100 
L 3047 1100 
L 3047 0 
L 2419 0 
L 2419 1100 
L 313 1100 
L 313 1709 
L 2253 4666 
z
" transform="scale(0.015625)"/>
       </defs>
       <use xlink:href="#DejaVuSans-34"/>
       <use xlink:href="#DejaVuSans-30" transform="translate(63.623047 0)"/>
       <use xlink:href="#DejaVuSans-30" transform="translate(127.246094 0)"/>
      </g>
     </g>
    </g>
    <g id="ytick_4">
     <g id="line2d_11">
      <g>
       <use xlink:href="#mc51434b859" x="46.965625" y="79.806871" style="stroke: #000000; stroke-width: 0.8"/>
      </g>
     </g>
     <g id="text_12">
      <!-- 600 -->
      <g transform="translate(20.878125 83.60609) scale(0.1 -0.1)">
       <defs>
        <path id="DejaVuSans-36" d="M 2113 2584 
Q 1688 2584 1439 2293 
Q 1191 2003 1191 1497 
Q 1191 994 1439 701 
Q 1688 409 2113 409 
Q 2538 409 2786 701 
Q 3034 994 3034 1497 
Q 3034 2003 2786 2293 
Q 2538 2584 2113 2584 
z
M 3366 4563 
L 3366 3988 
Q 3128 4100 2886 4159 
Q 2644 4219 2406 4219 
Q 1781 4219 1451 3797 
Q 1122 3375 1075 2522 
Q 1259 2794 1537 2939 
Q 1816 3084 2150 3084 
Q 2853 3084 3261 2657 
Q 3669 2231 3669 1497 
Q 3669 778 3244 343 
Q 2819 -91 2113 -91 
Q 1303 -91 875 529 
Q 447 1150 447 2328 
Q 447 3434 972 4092 
Q 1497 4750 2381 4750 
Q 2619 4750 2861 4703 
Q 3103 4656 3366 4563 
z
" transform="scale(0.015625)"/>
       </defs>
       <use xlink:href="#DejaVuSans-36"/>
       <use xlink:href="#DejaVuSans-30" transform="translate(63.623047 0)"/>
       <use xlink:href="#DejaVuSans-30" transform="translate(127.246094 0)"/>
      </g>
     </g>
    </g>
    <g id="text_13">
     <!-- Conversations -->
     <g transform="translate(14.798437 159.449719) rotate(-90) scale(0.1 -0.1)">
      <defs>
       <path id="DejaVuSans-43" d="M 4122 4306 
L 4122 3641 
Q 3803 3938 3442 4084 
Q 3081 4231 2675 4231 
Q 1875 4231 1450 3742 
Q 1025 3253 1025 2328 
Q 1025 1406 1450 917 
Q 1875 428 2675 428 
Q 3081 428 3442 575 
Q 3803 722 4122 1019 
L 4122 359 
Q 3791 134 3420 21 
Q 3050 -91 2638 -91 
Q 1578 -91 968 557 
Q 359 1206 359 2328 
Q 359 3453 968 4101 
Q 1578 4750 2638 4750 
Q 3056 4750 3426 4639 
Q 3797 4528 4122 4306 
z
" transform="scale(0.015625)"/>
      </defs>
      <use xlink:href="#DejaVuSans-43"/>
      <use xlink:href="#DejaVuSans-6f" transform="translate(69.824219 0)"/>
      <use xlink:href="#DejaVuSans-6e" transform="translate(131.005859 0)"/>
      <use xlink:href="#DejaVuSans-76" transform="translate(194.384766 0)"/>
      <use xlink:href="#DejaVuSans-65" transform="translate(253.564453 0)"/>
      <use xlink:href="#DejaVuSans-72" transform="translate(315.087891 0)"/>
      <use xlink:href="#DejaVuSans-73" transform="translate(356.201172 0)"/>
      <use xlink:href="#DejaVuSans-61" transform="translate(408.300781 0)"/>
      <use xlink:href="#DejaVuSans-74" transform="translate(469.580078 0)"/>
      <use xlink:href="#DejaVuSans-69" transform="translate(508.789062 0)"/>
      <use xlink:href="#DejaVuSans-6f" transform="translate(536.572266 0)"/>
      <use xlink:href="#DejaVuSans-6e" transform="translate(597.753906 0)"/>
      <use xlink:href="#DejaVuSans-73" transform="translate(661.132812 0)"/>
     </g>
    </g>
   </g>
   <g id="line2d_12">
    <path d="M 171.227292 179.368 
L 171.227292 68.208 
" clip-path="url(#pf7353ab46d)" style="fill: none; stroke-dasharray: 3.7,1.6; stroke-dashoffset: 0; stroke: #27251f"/>
   </g>
   <g id="patch_20">
    <path d="M 46.965625 179.368 
L 46.965625 68.208 
" style="fill: none; stroke: #000000; stroke-width: 0.8; stroke-linejoin: miter; stroke-linecap: square"/>
   </g>
   <g id="patch_21">
    <path d="M 295.488958 179.368 
L 295.488958 68.208 
" style="fill: none; stroke: #000000; stroke-width: 0.8; stroke-linejoin: miter; stroke-linecap: square"/>
   </g>
   <g id="patch_22">
    <path d="M 46.965625 179.368 
L 295.488958 179.368 
" style="fill: none; stroke: #000000; stroke-width: 0.8; stroke-linejoin: miter; stroke-linecap: square"/>
   </g>
   <g id="patch_23">
    <path d="M 46.965625 68.208 
L 295.488958 68.208 
" style="fill: none; stroke: #000000; stroke-width: 0.8; stroke-linejoin: miter; stroke-linecap: square"/>
   </g>
   <g id="text_14">
    <!-- High-precision -->
    <g transform="translate(128.207292 48.770625) scale(0.12 -0.12)">
     <defs>
      <path id="DejaVuSans-48" d="M 628 4666 
L 1259 4666 
L 1259 2753 
L 3553 2753 
L 3553 4666 
L 4184 4666 
L 4184 0 
L 3553 0 
L 3553 2222 
L 1259 2222 
L 1259 0 
L 628 0 
L 628 4666 
z
" transform="scale(0.015625)"/>
      <path id="DejaVuSans-67" d="M 2906 1791 
Q 2906 2416 2648 2759 
Q 2391 3103 1925 3103 
Q 1463 3103 1205 2759 
Q 947 2416 947 1791 
Q 947 1169 1205 825 
Q 1463 481 1925 481 
Q 2391 481 2648 825 
Q 2906 1169 2906 1791 
z
M 3481 434 
Q 3481 -459 3084 -895 
Q 2688 -1331 1869 -1331 
Q 1566 -1331 1297 -1286 
Q 1028 -1241 775 -1147 
L 775 -588 
Q 1028 -725 1275 -790 
Q 1522 -856 1778 -856 
Q 2344 -856 2625 -561 
Q 2906 -266 2906 331 
L 2906 616 
Q 2728 306 2450 153 
Q 2172 0 1784 0 
Q 1141 0 747 490 
Q 353 981 353 1791 
Q 353 2603 747 3093 
Q 1141 3584 1784 3584 
Q 2172 3584 2450 3431 
Q 2728 3278 2906 2969 
L 2906 3500 
L 3481 3500 
L 3481 434 
z
" transform="scale(0.015625)"/>
      <path id="DejaVuSans-68" d="M 3513 2113 
L 3513 0 
L 2938 0 
L 2938 2094 
Q 2938 2591 2744 2837 
Q 2550 3084 2163 3084 
Q 1697 3084 1428 2787 
Q 1159 2491 1159 1978 
L 1159 0 
L 581 0 
L 581 4863 
L 1159 4863 
L 1159 2956 
Q 1366 3272 1645 3428 
Q 1925 3584 2291 3584 
Q 2894 3584 3203 3211 
Q 3513 2838 3513 2113 
z
" transform="scale(0.015625)"/>
      <path id="DejaVuSans-2d" d="M 313 2009 
L 1997 2009 
L 1997 1497 
L 313 1497 
L 313 2009 
z
" transform="scale(0.015625)"/>
     </defs>
     <use xlink:href="#DejaVuSans-48"/>
     <use xlink:href="#DejaVuSans-69" transform="translate(75.195312 0)"/>
     <use xlink:href="#DejaVuSans-67" transform="translate(102.978516 0)"/>
     <use xlink:href="#DejaVuSans-68" transform="translate(166.455078 0)"/>
     <use xlink:href="#DejaVuSans-2d" transform="translate(229.833984 0)"/>
     <use xlink:href="#DejaVuSans-70" transform="translate(265.917969 0)"/>
     <use xlink:href="#DejaVuSans-72" transform="translate(329.394531 0)"/>
     <use xlink:href="#DejaVuSans-65" transform="translate(368.257812 0)"/>
     <use xlink:href="#DejaVuSans-63" transform="translate(429.78125 0)"/>
     <use xlink:href="#DejaVuSans-69" transform="translate(484.761719 0)"/>
     <use xlink:href="#DejaVuSans-73" transform="translate(512.544922 0)"/>
     <use xlink:href="#DejaVuSans-69" transform="translate(564.644531 0)"/>
     <use xlink:href="#DejaVuSans-6f" transform="translate(592.427734 0)"/>
     <use xlink:href="#DejaVuSans-6e" transform="translate(653.609375 0)"/>
    </g>
    <!-- (N=1591, excluded=1337) -->
    <g transform="translate(90.535729 62.208) scale(0.12 -0.12)">
     <defs>
      <path id="DejaVuSans-28" d="M 1984 4856 
Q 1566 4138 1362 3434 
Q 1159 2731 1159 2009 
Q 1159 1288 1364 580 
Q 1569 -128 1984 -844 
L 1484 -844 
Q 1016 -109 783 600 
Q 550 1309 550 2009 
Q 550 2706 781 3412 
Q 1013 4119 1484 4856 
L 1984 4856 
z
" transform="scale(0.015625)"/>
      <path id="DejaVuSans-4e" d="M 628 4666 
L 1478 4666 
L 3547 763 
L 3547 4666 
L 4159 4666 
L 4159 0 
L 3309 0 
L 1241 3903 
L 1241 0 
L 628 0 
L 628 4666 
z
" transform="scale(0.015625)"/>
      <path id="DejaVuSans-3d" d="M 678 2906 
L 4684 2906 
L 4684 2381 
L 678 2381 
L 678 2906 
z
M 678 1631 
L 4684 1631 
L 4684 1100 
L 678 1100 
L 678 1631 
z
" transform="scale(0.015625)"/>
      <path id="DejaVuSans-31" d="M 794 531 
L 1825 531 
L 1825 4091 
L 703 3866 
L 703 4441 
L 1819 4666 
L 2450 4666 
L 2450 531 
L 3481 531 
L 3481 0 
L 794 0 
L 794 531 
z
" transform="scale(0.015625)"/>
      <path id="DejaVuSans-39" d="M 703 97 
L 703 672 
Q 941 559 1184 500 
Q 1428 441 1663 441 
Q 2288 441 2617 861 
Q 2947 1281 2994 2138 
Q 2813 1869 2534 1725 
Q 2256 1581 1919 1581 
Q 1219 1581 811 2004 
Q 403 2428 403 3163 
Q 403 3881 828 4315 
Q 1253 4750 1959 4750 
Q 2769 4750 3195 4129 
Q 3622 3509 3622 2328 
Q 3622 1225 3098 567 
Q 2575 -91 1691 -91 
Q 1453 -91 1209 -44 
Q 966 3 703 97 
z
M 1959 2075 
Q 2384 2075 2632 2365 
Q 2881 2656 2881 3163 
Q 2881 3666 2632 3958 
Q 2384 4250 1959 4250 
Q 1534 4250 1286 3958 
Q 1038 3666 1038 3163 
Q 1038 2656 1286 2365 
Q 1534 2075 1959 2075 
z
" transform="scale(0.015625)"/>
      <path id="DejaVuSans-2c" d="M 750 794 
L 1409 794 
L 1409 256 
L 897 -744 
L 494 -744 
L 750 256 
L 750 794 
z
" transform="scale(0.015625)"/>
      <path id="DejaVuSans-78" d="M 3513 3500 
L 2247 1797 
L 3578 0 
L 2900 0 
L 1881 1375 
L 863 0 
L 184 0 
L 1544 1831 
L 300 3500 
L 978 3500 
L 1906 2253 
L 2834 3500 
L 3513 3500 
z
" transform="scale(0.015625)"/>
      <path id="DejaVuSans-33" d="M 2597 2516 
Q 3050 2419 3304 2112 
Q 3559 1806 3559 1356 
Q 3559 666 3084 287 
Q 2609 -91 1734 -91 
Q 1441 -91 1130 -33 
Q 819 25 488 141 
L 488 750 
Q 750 597 1062 519 
Q 1375 441 1716 441 
Q 2309 441 2620 675 
Q 2931 909 2931 1356 
Q 2931 1769 2642 2001 
Q 2353 2234 1838 2234 
L 1294 2234 
L 1294 2753 
L 1863 2753 
Q 2328 2753 2575 2939 
Q 2822 3125 2822 3475 
Q 2822 3834 2567 4026 
Q 2313 4219 1838 4219 
Q 1578 4219 1281 4162 
Q 984 4106 628 3988 
L 628 4550 
Q 988 4650 1302 4700 
Q 1616 4750 1894 4750 
Q 2613 4750 3031 4423 
Q 3450 4097 3450 3541 
Q 3450 3153 3228 2886 
Q 3006 2619 2597 2516 
z
" transform="scale(0.015625)"/>
      <path id="DejaVuSans-29" d="M 513 4856 
L 1013 4856 
Q 1481 4119 1714 3412 
Q 1947 2706 1947 2009 
Q 1947 1309 1714 600 
Q 1481 -109 1013 -844 
L 513 -844 
Q 928 -128 1133 580 
Q 1338 1288 1338 2009 
Q 1338 2731 1133 3434 
Q 928 4138 513 4856 
z
" transform="scale(0.015625)"/>
     </defs>
     <use xlink:href="#DejaVuSans-28"/>
     <use xlink:href="#DejaVuSans-4e" transform="translate(39.013672 0)"/>
     <use xlink:href="#DejaVuSans-3d" transform="translate(113.818359 0)"/>
     <use xlink:href="#DejaVuSans-31" transform="translate(197.607422 0)"/>
     <use xlink:href="#DejaVuSans-35" transform="translate(261.230469 0)"/>
     <use xlink:href="#DejaVuSans-39" transform="translate(324.853516 0)"/>
     <use xlink:href="#DejaVuSans-31" transform="translate(388.476562 0)"/>
     <use xlink:href="#DejaVuSans-2c" transform="translate(452.099609 0)"/>
     <use xlink:href="#DejaVuSans-20" transform="translate(483.886719 0)"/>
     <use xlink:href="#DejaVuSans-65" transform="translate(515.673828 0)"/>
     <use xlink:href="#DejaVuSans-78" transform="translate(575.447266 0)"/>
     <use xlink:href="#DejaVuSans-63" transform="translate(632.876953 0)"/>
     <use xlink:href="#DejaVuSans-6c" transform="translate(687.857422 0)"/>
     <use xlink:href="#DejaVuSans-75" transform="translate(715.640625 0)"/>
     <use xlink:href="#DejaVuSans-64" transform="translate(779.019531 0)"/>
     <use xlink:href="#DejaVuSans-65" transform="translate(842.496094 0)"/>
     <use xlink:href="#DejaVuSans-64" transform="translate(904.019531 0)"/>
     <use xlink:href="#DejaVuSans-3d" transform="translate(967.496094 0)"/>
     <use xlink:href="#DejaVuSans-31" transform="translate(1051.285156 0)"/>
     <use xlink:href="#DejaVuSans-33" transform="translate(1114.908203 0)"/>
     <use xlink:href="#DejaVuSans-33" transform="translate(1178.53125 0)"/>
     <use xlink:href="#DejaVuSans-37" transform="translate(1242.154297 0)"/>
     <use xlink:href="#DejaVuSans-29" transform="translate(1305.777344 0)"/>
    </g>
   </g>
  </g>
  <g id="axes_2">
   <g id="patch_24">
    <path d="M 323.868958 179.368 
L 572.392292 179.368 
L 572.392292 68.208 
L 323.868958 68.208 
z
" style="fill: #ffffff"/>
   </g>
   <g id="patch_25">
    <path d="M 335.165473 179.368 
L 348.455491 179.368 
L 348.455491 178.040518 
L 335.165473 178.040518 
z
" clip-path="url(#p178e638783)" style="fill: #2e5c8a; stroke: #ffffff; stroke-linejoin: miter"/>
   </g>
   <g id="patch_26">
    <path d="M 348.455491 179.368 
L 361.745509 179.368 
L 361.745509 177.708648 
L 348.455491 177.708648 
z
" clip-path="url(#p178e638783)" style="fill: #2e5c8a; stroke: #ffffff; stroke-linejoin: miter"/>
   </g>
   <g id="patch_27">
    <path d="M 361.745509 179.368 
L 375.035527 179.368 
L 375.035527 175.55149 
L 361.745509 175.55149 
z
" clip-path="url(#p178e638783)" style="fill: #2e5c8a; stroke: #ffffff; stroke-linejoin: miter"/>
   </g>
   <g id="patch_28">
    <path d="M 375.035527 179.368 
L 388.325545 179.368 
L 388.325545 175.385555 
L 375.035527 175.385555 
z
" clip-path="url(#p178e638783)" style="fill: #2e5c8a; stroke: #ffffff; stroke-linejoin: miter"/>
   </g>
   <g id="patch_29">
    <path d="M 388.325545 179.368 
L 401.615563 179.368 
L 401.615563 168.084405 
L 388.325545 168.084405 
z
" clip-path="url(#p178e638783)" style="fill: #2e5c8a; stroke: #ffffff; stroke-linejoin: miter"/>
   </g>
   <g id="patch_30">
    <path d="M 401.615563 179.368 
L 414.90558 179.368 
L 414.90558 170.075628 
L 401.615563 170.075628 
z
" clip-path="url(#p178e638783)" style="fill: #2e5c8a; stroke: #ffffff; stroke-linejoin: miter"/>
   </g>
   <g id="patch_31">
    <path d="M 414.90558 179.368 
L 428.195598 179.368 
L 428.195598 147.176568 
L 414.90558 147.176568 
z
" clip-path="url(#p178e638783)" style="fill: #2e5c8a; stroke: #ffffff; stroke-linejoin: miter"/>
   </g>
   <g id="patch_32">
    <path d="M 428.195598 179.368 
L 441.485616 179.368 
L 441.485616 146.678763 
L 428.195598 146.678763 
z
" clip-path="url(#p178e638783)" style="fill: #2e5c8a; stroke: #ffffff; stroke-linejoin: miter"/>
   </g>
   <g id="patch_33">
    <path d="M 441.485616 179.368 
L 454.775634 179.368 
L 454.775634 106.522441 
L 441.485616 106.522441 
z
" clip-path="url(#p178e638783)" style="fill: #2e5c8a; stroke: #ffffff; stroke-linejoin: miter"/>
   </g>
   <g id="patch_34">
    <path d="M 454.775634 179.368 
L 468.065652 179.368 
L 468.065652 123.447833 
L 454.775634 123.447833 
z
" clip-path="url(#p178e638783)" style="fill: #2e5c8a; stroke: #ffffff; stroke-linejoin: miter"/>
   </g>
   <g id="patch_35">
    <path d="M 468.065652 179.368 
L 481.35567 179.368 
L 481.35567 156.303005 
L 468.065652 156.303005 
z
" clip-path="url(#p178e638783)" style="fill: #2e5c8a; stroke: #ffffff; stroke-linejoin: miter"/>
   </g>
   <g id="patch_36">
    <path d="M 481.35567 179.368 
L 494.645687 179.368 
L 494.645687 166.425053 
L 481.35567 166.425053 
z
" clip-path="url(#p178e638783)" style="fill: #2e5c8a; stroke: #ffffff; stroke-linejoin: miter"/>
   </g>
   <g id="patch_37">
    <path d="M 494.645687 179.368 
L 507.935705 179.368 
L 507.935705 176.215231 
L 494.645687 176.215231 
z
" clip-path="url(#p178e638783)" style="fill: #2e5c8a; stroke: #ffffff; stroke-linejoin: miter"/>
   </g>
   <g id="patch_38">
    <path d="M 507.935705 179.368 
L 521.225723 179.368 
L 521.225723 177.874583 
L 507.935705 177.874583 
z
" clip-path="url(#p178e638783)" style="fill: #2e5c8a; stroke: #ffffff; stroke-linejoin: miter"/>
   </g>
   <g id="patch_39">
    <path d="M 521.225723 179.368 
L 534.515741 179.368 
L 534.515741 179.03613 
L 521.225723 179.03613 
z
" clip-path="url(#p178e638783)" style="fill: #2e5c8a; stroke: #ffffff; stroke-linejoin: miter"/>
   </g>
   <g id="patch_40">
    <path d="M 534.515741 179.368 
L 547.805759 179.368 
L 547.805759 179.368 
L 534.515741 179.368 
z
" clip-path="url(#p178e638783)" style="fill: #2e5c8a; stroke: #ffffff; stroke-linejoin: miter"/>
   </g>
   <g id="patch_41">
    <path d="M 547.805759 179.368 
L 561.095777 179.368 
L 561.095777 179.202065 
L 547.805759 179.202065 
z
" clip-path="url(#p178e638783)" style="fill: #2e5c8a; stroke: #ffffff; stroke-linejoin: miter"/>
   </g>
   <g id="matplotlib.axis_3">
    <g id="xtick_8">
     <g id="line2d_13">
      <g>
       <use xlink:href="#m5a9e6679d1" x="348.455491" y="179.368" style="stroke: #000000; stroke-width: 0.8"/>
      </g>
     </g>
     <g id="text_15">
      <!-- −7.5 -->
      <g transform="translate(336.314085 193.966437) scale(0.1 -0.1)">
       <use xlink:href="#DejaVuSans-2212"/>
       <use xlink:href="#DejaVuSans-37" transform="translate(83.789062 0)"/>
       <use xlink:href="#DejaVuSans-2e" transform="translate(147.412109 0)"/>
       <use xlink:href="#DejaVuSans-35" transform="translate(179.199219 0)"/>
      </g>
     </g>
    </g>
    <g id="xtick_9">
     <g id="line2d_14">
      <g>
       <use xlink:href="#m5a9e6679d1" x="381.680536" y="179.368" style="stroke: #000000; stroke-width: 0.8"/>
      </g>
     </g>
     <g id="text_16">
      <!-- −5.0 -->
      <g transform="translate(369.53913 193.966437) scale(0.1 -0.1)">
       <use xlink:href="#DejaVuSans-2212"/>
       <use xlink:href="#DejaVuSans-35" transform="translate(83.789062 0)"/>
       <use xlink:href="#DejaVuSans-2e" transform="translate(147.412109 0)"/>
       <use xlink:href="#DejaVuSans-30" transform="translate(179.199219 0)"/>
      </g>
     </g>
    </g>
    <g id="xtick_10">
     <g id="line2d_15">
      <g>
       <use xlink:href="#m5a9e6679d1" x="414.90558" y="179.368" style="stroke: #000000; stroke-width: 0.8"/>
      </g>
     </g>
     <g id="text_17">
      <!-- −2.5 -->
      <g transform="translate(402.764174 193.966437) scale(0.1 -0.1)">
       <use xlink:href="#DejaVuSans-2212"/>
       <use xlink:href="#DejaVuSans-32" transform="translate(83.789062 0)"/>
       <use xlink:href="#DejaVuSans-2e" transform="translate(147.412109 0)"/>
       <use xlink:href="#DejaVuSans-35" transform="translate(179.199219 0)"/>
      </g>
     </g>
    </g>
    <g id="xtick_11">
     <g id="line2d_16">
      <g>
       <use xlink:href="#m5a9e6679d1" x="448.130625" y="179.368" style="stroke: #000000; stroke-width: 0.8"/>
      </g>
     </g>
     <g id="text_18">
      <!-- 0.0 -->
      <g transform="translate(440.179062 193.966437) scale(0.1 -0.1)">
       <use xlink:href="#DejaVuSans-30"/>
       <use xlink:href="#DejaVuSans-2e" transform="translate(63.623047 0)"/>
       <use xlink:href="#DejaVuSans-30" transform="translate(95.410156 0)"/>
      </g>
     </g>
    </g>
    <g id="xtick_12">
     <g id="line2d_17">
      <g>
       <use xlink:href="#m5a9e6679d1" x="481.35567" y="179.368" style="stroke: #000000; stroke-width: 0.8"/>
      </g>
     </g>
     <g id="text_19">
      <!-- 2.5 -->
      <g transform="translate(473.404107 193.966437) scale(0.1 -0.1)">
       <use xlink:href="#DejaVuSans-32"/>
       <use xlink:href="#DejaVuSans-2e" transform="translate(63.623047 0)"/>
       <use xlink:href="#DejaVuSans-35" transform="translate(95.410156 0)"/>
      </g>
     </g>
    </g>
    <g id="xtick_13">
     <g id="line2d_18">
      <g>
       <use xlink:href="#m5a9e6679d1" x="514.580714" y="179.368" style="stroke: #000000; stroke-width: 0.8"/>
      </g>
     </g>
     <g id="text_20">
      <!-- 5.0 -->
      <g transform="translate(506.629152 193.966437) scale(0.1 -0.1)">
       <use xlink:href="#DejaVuSans-35"/>
       <use xlink:href="#DejaVuSans-2e" transform="translate(63.623047 0)"/>
       <use xlink:href="#DejaVuSans-30" transform="translate(95.410156 0)"/>
      </g>
     </g>
    </g>
    <g id="xtick_14">
     <g id="line2d_19">
      <g>
       <use xlink:href="#m5a9e6679d1" x="547.805759" y="179.368" style="stroke: #000000; stroke-width: 0.8"/>
      </g>
     </g>
     <g id="text_21">
      <!-- 7.5 -->
      <g transform="translate(539.854196 193.966437) scale(0.1 -0.1)">
       <use xlink:href="#DejaVuSans-37"/>
       <use xlink:href="#DejaVuSans-2e" transform="translate(63.623047 0)"/>
       <use xlink:href="#DejaVuSans-35" transform="translate(95.410156 0)"/>
      </g>
     </g>
    </g>
    <g id="text_22">
     <!-- First violation turn − first prediction turn -->
     <g transform="translate(347.061094 207.644562) scale(0.1 -0.1)">
      <use xlink:href="#DejaVuSans-46"/>
      <use xlink:href="#DejaVuSans-69" transform="translate(50.269531 0)"/>
      <use xlink:href="#DejaVuSans-72" transform="translate(78.052734 0)"/>
      <use xlink:href="#DejaVuSans-73" transform="translate(119.166016 0)"/>
      <use xlink:href="#DejaVuSans-74" transform="translate(171.265625 0)"/>
      <use xlink:href="#DejaVuSans-20" transform="translate(210.474609 0)"/>
      <use xlink:href="#DejaVuSans-76" transform="translate(242.261719 0)"/>
      <use xlink:href="#DejaVuSans-69" transform="translate(301.441406 0)"/>
      <use xlink:href="#DejaVuSans-6f" transform="translate(329.224609 0)"/>
      <use xlink:href="#DejaVuSans-6c" transform="translate(390.40625 0)"/>
      <use xlink:href="#DejaVuSans-61" transform="translate(418.189453 0)"/>
      <use xlink:href="#DejaVuSans-74" transform="translate(479.46875 0)"/>
      <use xlink:href="#DejaVuSans-69" transform="translate(518.677734 0)"/>
      <use xlink:href="#DejaVuSans-6f" transform="translate(546.460938 0)"/>
      <use xlink:href="#DejaVuSans-6e" transform="translate(607.642578 0)"/>
      <use xlink:href="#DejaVuSans-20" transform="translate(671.021484 0)"/>
      <use xlink:href="#DejaVuSans-74" transform="translate(702.808594 0)"/>
      <use xlink:href="#DejaVuSans-75" transform="translate(742.017578 0)"/>
      <use xlink:href="#DejaVuSans-72" transform="translate(805.396484 0)"/>
      <use xlink:href="#DejaVuSans-6e" transform="translate(844.759766 0)"/>
      <use xlink:href="#DejaVuSans-20" transform="translate(908.138672 0)"/>
      <use xlink:href="#DejaVuSans-2212" transform="translate(939.925781 0)"/>
      <use xlink:href="#DejaVuSans-20" transform="translate(1023.714844 0)"/>
      <use xlink:href="#DejaVuSans-66" transform="translate(1055.501953 0)"/>
      <use xlink:href="#DejaVuSans-69" transform="translate(1090.707031 0)"/>
      <use xlink:href="#DejaVuSans-72" transform="translate(1118.490234 0)"/>
      <use xlink:href="#DejaVuSans-73" transform="translate(1159.603516 0)"/>
      <use xlink:href="#DejaVuSans-74" transform="translate(1211.703125 0)"/>
      <use xlink:href="#DejaVuSans-20" transform="translate(1250.912109 0)"/>
      <use xlink:href="#DejaVuSans-70" transform="translate(1282.699219 0)"/>
      <use xlink:href="#DejaVuSans-72" transform="translate(1346.175781 0)"/>
      <use xlink:href="#DejaVuSans-65" transform="translate(1385.039062 0)"/>
      <use xlink:href="#DejaVuSans-64" transform="translate(1446.5625 0)"/>
      <use xlink:href="#DejaVuSans-69" transform="translate(1510.039062 0)"/>
      <use xlink:href="#DejaVuSans-63" transform="translate(1537.822266 0)"/>
      <use xlink:href="#DejaVuSans-74" transform="translate(1592.802734 0)"/>
      <use xlink:href="#DejaVuSans-69" transform="translate(1632.011719 0)"/>
      <use xlink:href="#DejaVuSans-6f" transform="translate(1659.794922 0)"/>
      <use xlink:href="#DejaVuSans-6e" transform="translate(1720.976562 0)"/>
      <use xlink:href="#DejaVuSans-20" transform="translate(1784.355469 0)"/>
      <use xlink:href="#DejaVuSans-74" transform="translate(1816.142578 0)"/>
      <use xlink:href="#DejaVuSans-75" transform="translate(1855.351562 0)"/>
      <use xlink:href="#DejaVuSans-72" transform="translate(1918.730469 0)"/>
      <use xlink:href="#DejaVuSans-6e" transform="translate(1958.09375 0)"/>
     </g>
     <!-- ← missed       prevented → -->
     <g transform="translate(382.120469 218.842375) scale(0.1 -0.1)">
      <use xlink:href="#DejaVuSans-2190"/>
      <use xlink:href="#DejaVuSans-20" transform="translate(83.789062 0)"/>
      <use xlink:href="#DejaVuSans-6d" transform="translate(115.576172 0)"/>
      <use xlink:href="#DejaVuSans-69" transform="translate(212.988281 0)"/>
      <use xlink:href="#DejaVuSans-73" transform="translate(240.771484 0)"/>
      <use xlink:href="#DejaVuSans-73" transform="translate(292.871094 0)"/>
      <use xlink:href="#DejaVuSans-65" transform="translate(344.970703 0)"/>
      <use xlink:href="#DejaVuSans-64" transform="translate(406.494141 0)"/>
      <use xlink:href="#DejaVuSans-20" transform="translate(469.970703 0)"/>
      <use xlink:href="#DejaVuSans-20" transform="translate(501.757812 0)"/>
      <use xlink:href="#DejaVuSans-20" transform="translate(533.544922 0)"/>
      <use xlink:href="#DejaVuSans-20" transform="translate(565.332031 0)"/>
      <use xlink:href="#DejaVuSans-20" transform="translate(597.119141 0)"/>
      <use xlink:href="#DejaVuSans-20" transform="translate(628.90625 0)"/>
      <use xlink:href="#DejaVuSans-20" transform="translate(660.693359 0)"/>
      <use xlink:href="#DejaVuSans-70" transform="translate(692.480469 0)"/>
      <use xlink:href="#DejaVuSans-72" transform="translate(755.957031 0)"/>
      <use xlink:href="#DejaVuSans-65" transform="translate(794.820312 0)"/>
      <use xlink:href="#DejaVuSans-76" transform="translate(856.34375 0)"/>
      <use xlink:href="#DejaVuSans-65" transform="translate(915.523438 0)"/>
      <use xlink:href="#DejaVuSans-6e" transform="translate(977.046875 0)"/>
      <use xlink:href="#DejaVuSans-74" transform="translate(1040.425781 0)"/>
      <use xlink:href="#DejaVuSans-65" transform="translate(1079.634766 0)"/>
      <use xlink:href="#DejaVuSans-64" transform="translate(1141.158203 0)"/>
      <use xlink:href="#DejaVuSans-20" transform="translate(1204.634766 0)"/>
      <use xlink:href="#DejaVuSans-2192" transform="translate(1236.421875 0)"/>
     </g>
    </g>
   </g>
   <g id="matplotlib.axis_4">
    <g id="ytick_5">
     <g id="line2d_20">
      <g>
       <use xlink:href="#mc51434b859" x="323.868958" y="179.368" style="stroke: #000000; stroke-width: 0.8"/>
      </g>
     </g>
    </g>
    <g id="ytick_6">
     <g id="line2d_21">
      <g>
       <use xlink:href="#mc51434b859" x="323.868958" y="146.180957" style="stroke: #000000; stroke-width: 0.8"/>
      </g>
     </g>
    </g>
    <g id="ytick_7">
     <g id="line2d_22">
      <g>
       <use xlink:href="#mc51434b859" x="323.868958" y="112.993914" style="stroke: #000000; stroke-width: 0.8"/>
      </g>
     </g>
    </g>
    <g id="ytick_8">
     <g id="line2d_23">
      <g>
       <use xlink:href="#mc51434b859" x="323.868958" y="79.806871" style="stroke: #000000; stroke-width: 0.8"/>
      </g>
     </g>
    </g>
    <g id="text_23">
     <!-- Conversations -->
     <g transform="translate(314.289271 159.449719) rotate(-90) scale(0.1 -0.1)">
      <use xlink:href="#DejaVuSans-43"/>
      <use xlink:href="#DejaVuSans-6f" transform="translate(69.824219 0)"/>
      <use xlink:href="#DejaVuSans-6e" transform="translate(131.005859 0)"/>
      <use xlink:href="#DejaVuSans-76" transform="translate(194.384766 0)"/>
      <use xlink:href="#DejaVuSans-65" transform="translate(253.564453 0)"/>
      <use xlink:href="#DejaVuSans-72" transform="translate(315.087891 0)"/>
      <use xlink:href="#DejaVuSans-73" transform="translate(356.201172 0)"/>
      <use xlink:href="#DejaVuSans-61" transform="translate(408.300781 0)"/>
      <use xlink:href="#DejaVuSans-74" transform="translate(469.580078 0)"/>
      <use xlink:href="#DejaVuSans-69" transform="translate(508.789062 0)"/>
      <use xlink:href="#DejaVuSans-6f" transform="translate(536.572266 0)"/>
      <use xlink:href="#DejaVuSans-6e" transform="translate(597.753906 0)"/>
      <use xlink:href="#DejaVuSans-73" transform="translate(661.132812 0)"/>
     </g>
    </g>
   </g>
   <g id="line2d_24">
    <path d="M 448.130625 179.368 
L 448.130625 68.208 
" clip-path="url(#p178e638783)" style="fill: none; stroke-dasharray: 3.7,1.6; stroke-dashoffset: 0; stroke: #27251f"/>
   </g>
   <g id="patch_42">
    <path d="M 323.868958 179.368 
L 323.868958 68.208 
" style="fill: none; stroke: #000000; stroke-width: 0.8; stroke-linejoin: miter; stroke-linecap: square"/>
   </g>
   <g id="patch_43">
    <path d="M 572.392292 179.368 
L 572.392292 68.208 
" style="fill: none; stroke: #000000; stroke-width: 0.8; stroke-linejoin: miter; stroke-linecap: square"/>
   </g>
   <g id="patch_44">
    <path d="M 323.868958 179.368 
L 572.392292 179.368 
" style="fill: none; stroke: #000000; stroke-width: 0.8; stroke-linejoin: miter; stroke-linecap: square"/>
   </g>
   <g id="patch_45">
    <path d="M 323.868958 68.208 
L 572.392292 68.208 
" style="fill: none; stroke: #000000; stroke-width: 0.8; stroke-linejoin: miter; stroke-linecap: square"/>
   </g>
   <g id="text_24">
    <!-- Balanced -->
    <g transform="translate(420.390938 48.770625) scale(0.12 -0.12)">
     <defs>
      <path id="DejaVuSans-42" d="M 1259 2228 
L 1259 519 
L 2272 519 
Q 2781 519 3026 730 
Q 3272 941 3272 1375 
Q 3272 1813 3026 2020 
Q 2781 2228 2272 2228 
L 1259 2228 
z
M 1259 4147 
L 1259 2741 
L 2194 2741 
Q 2656 2741 2882 2914 
Q 3109 3088 3109 3444 
Q 3109 3797 2882 3972 
Q 2656 4147 2194 4147 
L 1259 4147 
z
M 628 4666 
L 2241 4666 
Q 2963 4666 3353 4366 
Q 3744 4066 3744 3513 
Q 3744 3084 3544 2831 
Q 3344 2578 2956 2516 
Q 3422 2416 3680 2098 
Q 3938 1781 3938 1306 
Q 3938 681 3513 340 
Q 3088 0 2303 0 
L 628 0 
L 628 4666 
z
" transform="scale(0.015625)"/>
     </defs>
     <use xlink:href="#DejaVuSans-42"/>
     <use xlink:href="#DejaVuSans-61" transform="translate(68.603516 0)"/>
     <use xlink:href="#DejaVuSans-6c" transform="translate(129.882812 0)"/>
     <use xlink:href="#DejaVuSans-61" transform="translate(157.666016 0)"/>
     <use xlink:href="#DejaVuSans-6e" transform="translate(218.945312 0)"/>
     <use xlink:href="#DejaVuSans-63" transform="translate(282.324219 0)"/>
     <use xlink:href="#DejaVuSans-65" transform="translate(337.304688 0)"/>
     <use xlink:href="#DejaVuSans-64" transform="translate(398.828125 0)"/>
    </g>
    <!-- (N=1604, excluded=1324) -->
    <g transform="translate(367.439062 62.208) scale(0.12 -0.12)">
     <use xlink:href="#DejaVuSans-28"/>
     <use xlink:href="#DejaVuSans-4e" transform="translate(39.013672 0)"/>
     <use xlink:href="#DejaVuSans-3d" transform="translate(113.818359 0)"/>
     <use xlink:href="#DejaVuSans-31" transform="translate(197.607422 0)"/>
     <use xlink:href="#DejaVuSans-36" transform="translate(261.230469 0)"/>
     <use xlink:href="#DejaVuSans-30" transform="translate(324.853516 0)"/>
     <use xlink:href="#DejaVuSans-34" transform="translate(388.476562 0)"/>
     <use xlink:href="#DejaVuSans-2c" transform="translate(452.099609 0)"/>
     <use xlink:href="#DejaVuSans-20" transform="translate(483.886719 0)"/>
     <use xlink:href="#DejaVuSans-65" transform="translate(515.673828 0)"/>
     <use xlink:href="#DejaVuSans-78" transform="translate(575.447266 0)"/>
     <use xlink:href="#DejaVuSans-63" transform="translate(632.876953 0)"/>
     <use xlink:href="#DejaVuSans-6c" transform="translate(687.857422 0)"/>
     <use xlink:href="#DejaVuSans-75" transform="translate(715.640625 0)"/>
     <use xlink:href="#DejaVuSans-64" transform="translate(779.019531 0)"/>
     <use xlink:href="#DejaVuSans-65" transform="translate(842.496094 0)"/>
     <use xlink:href="#DejaVuSans-64" transform="translate(904.019531 0)"/>
     <use xlink:href="#DejaVuSans-3d" transform="translate(967.496094 0)"/>
     <use xlink:href="#DejaVuSans-31" transform="translate(1051.285156 0)"/>
     <use xlink:href="#DejaVuSans-33" transform="translate(1114.908203 0)"/>
     <use xlink:href="#DejaVuSans-32" transform="translate(1178.53125 0)"/>
     <use xlink:href="#DejaVuSans-34" transform="translate(1242.154297 0)"/>
     <use xlink:href="#DejaVuSans-29" transform="translate(1305.777344 0)"/>
    </g>
   </g>
  </g>
  <g id="axes_3">
   <g id="patch_46">
    <path d="M 600.772292 179.368 
L 849.295625 179.368 
L 849.295625 68.208 
L 600.772292 68.208 
z
" style="fill: #ffffff"/>
   </g>
   <g id="patch_47">
    <path d="M 612.068807 179.368 
L 622.338366 179.368 
L 622.338366 179.202065 
L 612.068807 179.202065 
z
" clip-path="url(#p3c5b353e84)" style="fill: #2e5c8a; stroke: #ffffff; stroke-linejoin: miter"/>
   </g>
   <g id="patch_48">
    <path d="M 622.338366 179.368 
L 632.607925 179.368 
L 632.607925 179.368 
L 622.338366 179.368 
z
" clip-path="url(#p3c5b353e84)" style="fill: #2e5c8a; stroke: #ffffff; stroke-linejoin: miter"/>
   </g>
   <g id="patch_49">
    <path d="M 632.607925 179.368 
L 642.877485 179.368 
L 642.877485 179.368 
L 632.607925 179.368 
z
" clip-path="url(#p3c5b353e84)" style="fill: #2e5c8a; stroke: #ffffff; stroke-linejoin: miter"/>
   </g>
   <g id="patch_50">
    <path d="M 642.877485 179.368 
L 653.147044 179.368 
L 653.147044 179.03613 
L 642.877485 179.03613 
z
" clip-path="url(#p3c5b353e84)" style="fill: #2e5c8a; stroke: #ffffff; stroke-linejoin: miter"/>
   </g>
   <g id="patch_51">
    <path d="M 653.147044 179.368 
L 663.416603 179.368 
L 663.416603 178.206454 
L 653.147044 178.206454 
z
" clip-path="url(#p3c5b353e84)" style="fill: #2e5c8a; stroke: #ffffff; stroke-linejoin: miter"/>
   </g>
   <g id="patch_52">
    <path d="M 663.416603 179.368 
L 673.686162 179.368 
L 673.686162 178.040518 
L 663.416603 178.040518 
z
" clip-path="url(#p3c5b353e84)" style="fill: #2e5c8a; stroke: #ffffff; stroke-linejoin: miter"/>
   </g>
   <g id="patch_53">
    <path d="M 673.686162 179.368 
L 683.955721 179.368 
L 683.955721 176.713037 
L 673.686162 176.713037 
z
" clip-path="url(#p3c5b353e84)" style="fill: #2e5c8a; stroke: #ffffff; stroke-linejoin: miter"/>
   </g>
   <g id="patch_54">
    <path d="M 683.955721 179.368 
L 694.225281 179.368 
L 694.225281 177.874583 
L 683.955721 177.874583 
z
" clip-path="url(#p3c5b353e84)" style="fill: #2e5c8a; stroke: #ffffff; stroke-linejoin: miter"/>
   </g>
   <g id="patch_55">
    <path d="M 694.225281 179.368 
L 704.49484 179.368 
L 704.49484 173.394332 
L 694.225281 173.394332 
z
" clip-path="url(#p3c5b353e84)" style="fill: #2e5c8a; stroke: #ffffff; stroke-linejoin: miter"/>
   </g>
   <g id="patch_56">
    <path d="M 704.49484 179.368 
L 714.764399 179.368 
L 714.764399 166.093183 
L 704.49484 166.093183 
z
" clip-path="url(#p3c5b353e84)" style="fill: #2e5c8a; stroke: #ffffff; stroke-linejoin: miter"/>
   </g>
   <g id="patch_57">
    <path d="M 714.764399 179.368 
L 725.033958 179.368 
L 725.033958 149.001856 
L 714.764399 149.001856 
z
" clip-path="url(#p3c5b353e84)" style="fill: #2e5c8a; stroke: #ffffff; stroke-linejoin: miter"/>
   </g>
   <g id="patch_58">
    <path d="M 725.033958 179.368 
L 735.303518 179.368 
L 735.303518 89.92892 
L 725.033958 89.92892 
z
" clip-path="url(#p3c5b353e84)" style="fill: #2e5c8a; stroke: #ffffff; stroke-linejoin: miter"/>
   </g>
   <g id="patch_59">
    <path d="M 735.303518 179.368 
L 745.573077 179.368 
L 745.573077 148.669985 
L 735.303518 148.669985 
z
" clip-path="url(#p3c5b353e84)" style="fill: #2e5c8a; stroke: #ffffff; stroke-linejoin: miter"/>
   </g>
   <g id="patch_60">
    <path d="M 745.573077 179.368 
L 755.842636 179.368 
L 755.842636 85.448669 
L 745.573077 85.448669 
z
" clip-path="url(#p3c5b353e84)" style="fill: #2e5c8a; stroke: #ffffff; stroke-linejoin: miter"/>
   </g>
   <g id="patch_61">
    <path d="M 755.842636 179.368 
L 766.112195 179.368 
L 766.112195 174.721814 
L 755.842636 174.721814 
z
" clip-path="url(#p3c5b353e84)" style="fill: #2e5c8a; stroke: #ffffff; stroke-linejoin: miter"/>
   </g>
   <g id="patch_62">
    <path d="M 766.112195 179.368 
L 776.381754 179.368 
L 776.381754 161.778867 
L 766.112195 161.778867 
z
" clip-path="url(#p3c5b353e84)" style="fill: #2e5c8a; stroke: #ffffff; stroke-linejoin: miter"/>
   </g>
   <g id="patch_63">
    <path d="M 776.381754 179.368 
L 786.651314 179.368 
L 786.651314 179.202065 
L 776.381754 179.202065 
z
" clip-path="url(#p3c5b353e84)" style="fill: #2e5c8a; stroke: #ffffff; stroke-linejoin: miter"/>
   </g>
   <g id="patch_64">
    <path d="M 786.651314 179.368 
L 796.920873 179.368 
L 796.920873 176.547101 
L 786.651314 176.547101 
z
" clip-path="url(#p3c5b353e84)" style="fill: #2e5c8a; stroke: #ffffff; stroke-linejoin: miter"/>
   </g>
   <g id="patch_65">
    <path d="M 796.920873 179.368 
L 807.190432 179.368 
L 807.190432 179.202065 
L 796.920873 179.202065 
z
" clip-path="url(#p3c5b353e84)" style="fill: #2e5c8a; stroke: #ffffff; stroke-linejoin: miter"/>
   </g>
   <g id="patch_66">
    <path d="M 807.190432 179.368 
L 817.459991 179.368 
L 817.459991 178.372389 
L 807.190432 178.372389 
z
" clip-path="url(#p3c5b353e84)" style="fill: #2e5c8a; stroke: #ffffff; stroke-linejoin: miter"/>
   </g>
   <g id="patch_67">
    <path d="M 817.459991 179.368 
L 827.729551 179.368 
L 827.729551 179.368 
L 817.459991 179.368 
z
" clip-path="url(#p3c5b353e84)" style="fill: #2e5c8a; stroke: #ffffff; stroke-linejoin: miter"/>
   </g>
   <g id="patch_68">
    <path d="M 827.729551 179.368 
L 837.99911 179.368 
L 837.99911 179.03613 
L 827.729551 179.03613 
z
" clip-path="url(#p3c5b353e84)" style="fill: #2e5c8a; stroke: #ffffff; stroke-linejoin: miter"/>
   </g>
   <g id="matplotlib.axis_5">
    <g id="xtick_15">
     <g id="line2d_25">
      <g>
       <use xlink:href="#m5a9e6679d1" x="617.203586" y="179.368" style="stroke: #000000; stroke-width: 0.8"/>
      </g>
     </g>
     <g id="text_25">
      <!-- −10 -->
      <g transform="translate(606.651243 193.966437) scale(0.1 -0.1)">
       <use xlink:href="#DejaVuSans-2212"/>
       <use xlink:href="#DejaVuSans-31" transform="translate(83.789062 0)"/>
       <use xlink:href="#DejaVuSans-30" transform="translate(147.412109 0)"/>
      </g>
     </g>
    </g>
    <g id="xtick_16">
     <g id="line2d_26">
      <g>
       <use xlink:href="#m5a9e6679d1" x="668.551383" y="179.368" style="stroke: #000000; stroke-width: 0.8"/>
      </g>
     </g>
     <g id="text_26">
      <!-- −5 -->
      <g transform="translate(661.180289 193.966437) scale(0.1 -0.1)">
       <use xlink:href="#DejaVuSans-2212"/>
       <use xlink:href="#DejaVuSans-35" transform="translate(83.789062 0)"/>
      </g>
     </g>
    </g>
    <g id="xtick_17">
     <g id="line2d_27">
      <g>
       <use xlink:href="#m5a9e6679d1" x="719.899179" y="179.368" style="stroke: #000000; stroke-width: 0.8"/>
      </g>
     </g>
     <g id="text_27">
      <!-- 0 -->
      <g transform="translate(716.717929 193.966437) scale(0.1 -0.1)">
       <use xlink:href="#DejaVuSans-30"/>
      </g>
     </g>
    </g>
    <g id="xtick_18">
     <g id="line2d_28">
      <g>
       <use xlink:href="#m5a9e6679d1" x="771.246975" y="179.368" style="stroke: #000000; stroke-width: 0.8"/>
      </g>
     </g>
     <g id="text_28">
      <!-- 5 -->
      <g transform="translate(768.065725 193.966437) scale(0.1 -0.1)">
       <use xlink:href="#DejaVuSans-35"/>
      </g>
     </g>
    </g>
    <g id="xtick_19">
     <g id="line2d_29">
      <g>
       <use xlink:href="#m5a9e6679d1" x="822.594771" y="179.368" style="stroke: #000000; stroke-width: 0.8"/>
      </g>
     </g>
     <g id="text_29">
      <!-- 10 -->
      <g transform="translate(816.232271 193.966437) scale(0.1 -0.1)">
       <use xlink:href="#DejaVuSans-31"/>
       <use xlink:href="#DejaVuSans-30" transform="translate(63.623047 0)"/>
      </g>
     </g>
    </g>
    <g id="text_30">
     <!-- First violation turn − first prediction turn -->
     <g transform="translate(623.964427 207.644562) scale(0.1 -0.1)">
      <use xlink:href="#DejaVuSans-46"/>
      <use xlink:href="#DejaVuSans-69" transform="translate(50.269531 0)"/>
      <use xlink:href="#DejaVuSans-72" transform="translate(78.052734 0)"/>
      <use xlink:href="#DejaVuSans-73" transform="translate(119.166016 0)"/>
      <use xlink:href="#DejaVuSans-74" transform="translate(171.265625 0)"/>
      <use xlink:href="#DejaVuSans-20" transform="translate(210.474609 0)"/>
      <use xlink:href="#DejaVuSans-76" transform="translate(242.261719 0)"/>
      <use xlink:href="#DejaVuSans-69" transform="translate(301.441406 0)"/>
      <use xlink:href="#DejaVuSans-6f" transform="translate(329.224609 0)"/>
      <use xlink:href="#DejaVuSans-6c" transform="translate(390.40625 0)"/>
      <use xlink:href="#DejaVuSans-61" transform="translate(418.189453 0)"/>
      <use xlink:href="#DejaVuSans-74" transform="translate(479.46875 0)"/>
      <use xlink:href="#DejaVuSans-69" transform="translate(518.677734 0)"/>
      <use xlink:href="#DejaVuSans-6f" transform="translate(546.460938 0)"/>
      <use xlink:href="#DejaVuSans-6e" transform="translate(607.642578 0)"/>
      <use xlink:href="#DejaVuSans-20" transform="translate(671.021484 0)"/>
      <use xlink:href="#DejaVuSans-74" transform="translate(702.808594 0)"/>
      <use xlink:href="#DejaVuSans-75" transform="translate(742.017578 0)"/>
      <use xlink:href="#DejaVuSans-72" transform="translate(805.396484 0)"/>
      <use xlink:href="#DejaVuSans-6e" transform="translate(844.759766 0)"/>
      <use xlink:href="#DejaVuSans-20" transform="translate(908.138672 0)"/>
      <use xlink:href="#DejaVuSans-2212" transform="translate(939.925781 0)"/>
      <use xlink:href="#DejaVuSans-20" transform="translate(1023.714844 0)"/>
      <use xlink:href="#DejaVuSans-66" transform="translate(1055.501953 0)"/>
      <use xlink:href="#DejaVuSans-69" transform="translate(1090.707031 0)"/>
      <use xlink:href="#DejaVuSans-72" transform="translate(1118.490234 0)"/>
      <use xlink:href="#DejaVuSans-73" transform="translate(1159.603516 0)"/>
      <use xlink:href="#DejaVuSans-74" transform="translate(1211.703125 0)"/>
      <use xlink:href="#DejaVuSans-20" transform="translate(1250.912109 0)"/>
      <use xlink:href="#DejaVuSans-70" transform="translate(1282.699219 0)"/>
      <use xlink:href="#DejaVuSans-72" transform="translate(1346.175781 0)"/>
      <use xlink:href="#DejaVuSans-65" transform="translate(1385.039062 0)"/>
      <use xlink:href="#DejaVuSans-64" transform="translate(1446.5625 0)"/>
      <use xlink:href="#DejaVuSans-69" transform="translate(1510.039062 0)"/>
      <use xlink:href="#DejaVuSans-63" transform="translate(1537.822266 0)"/>
      <use xlink:href="#DejaVuSans-74" transform="translate(1592.802734 0)"/>
      <use xlink:href="#DejaVuSans-69" transform="translate(1632.011719 0)"/>
      <use xlink:href="#DejaVuSans-6f" transform="translate(1659.794922 0)"/>
      <use xlink:href="#DejaVuSans-6e" transform="translate(1720.976562 0)"/>
      <use xlink:href="#DejaVuSans-20" transform="translate(1784.355469 0)"/>
      <use xlink:href="#DejaVuSans-74" transform="translate(1816.142578 0)"/>
      <use xlink:href="#DejaVuSans-75" transform="translate(1855.351562 0)"/>
      <use xlink:href="#DejaVuSans-72" transform="translate(1918.730469 0)"/>
      <use xlink:href="#DejaVuSans-6e" transform="translate(1958.09375 0)"/>
     </g>
     <!-- ← missed       prevented → -->
     <g transform="translate(659.023802 218.842375) scale(0.1 -0.1)">
      <use xlink:href="#DejaVuSans-2190"/>
      <use xlink:href="#DejaVuSans-20" transform="translate(83.789062 0)"/>
      <use xlink:href="#DejaVuSans-6d" transform="translate(115.576172 0)"/>
      <use xlink:href="#DejaVuSans-69" transform="translate(212.988281 0)"/>
      <use xlink:href="#DejaVuSans-73" transform="translate(240.771484 0)"/>
      <use xlink:href="#DejaVuSans-73" transform="translate(292.871094 0)"/>
      <use xlink:href="#DejaVuSans-65" transform="translate(344.970703 0)"/>
      <use xlink:href="#DejaVuSans-64" transform="translate(406.494141 0)"/>
      <use xlink:href="#DejaVuSans-20" transform="translate(469.970703 0)"/>
      <use xlink:href="#DejaVuSans-20" transform="translate(501.757812 0)"/>
      <use xlink:href="#DejaVuSans-20" transform="translate(533.544922 0)"/>
      <use xlink:href="#DejaVuSans-20" transform="translate(565.332031 0)"/>
      <use xlink:href="#DejaVuSans-20" transform="translate(597.119141 0)"/>
      <use xlink:href="#DejaVuSans-20" transform="translate(628.90625 0)"/>
      <use xlink:href="#DejaVuSans-20" transform="translate(660.693359 0)"/>
      <use xlink:href="#DejaVuSans-70" transform="translate(692.480469 0)"/>
      <use xlink:href="#DejaVuSans-72" transform="translate(755.957031 0)"/>
      <use xlink:href="#DejaVuSans-65" transform="translate(794.820312 0)"/>
      <use xlink:href="#DejaVuSans-76" transform="translate(856.34375 0)"/>
      <use xlink:href="#DejaVuSans-65" transform="translate(915.523438 0)"/>
      <use xlink:href="#DejaVuSans-6e" transform="translate(977.046875 0)"/>
      <use xlink:href="#DejaVuSans-74" transform="translate(1040.425781 0)"/>
      <use xlink:href="#DejaVuSans-65" transform="translate(1079.634766 0)"/>
      <use xlink:href="#DejaVuSans-64" transform="translate(1141.158203 0)"/>
      <use xlink:href="#DejaVuSans-20" transform="translate(1204.634766 0)"/>
      <use xlink:href="#DejaVuSans-2192" transform="translate(1236.421875 0)"/>
     </g>
    </g>
   </g>
   <g id="matplotlib.axis_6">
    <g id="ytick_9">
     <g id="line2d_30">
      <g>
       <use xlink:href="#mc51434b859" x="600.772292" y="179.368" style="stroke: #000000; stroke-width: 0.8"/>
      </g>
     </g>
    </g>
    <g id="ytick_10">
     <g id="line2d_31">
      <g>
       <use xlink:href="#mc51434b859" x="600.772292" y="146.180957" style="stroke: #000000; stroke-width: 0.8"/>
      </g>
     </g>
    </g>
    <g id="ytick_11">
     <g id="line2d_32">
      <g>
       <use xlink:href="#mc51434b859" x="600.772292" y="112.993914" style="stroke: #000000; stroke-width: 0.8"/>
      </g>
     </g>
    </g>
    <g id="ytick_12">
     <g id="line2d_33">
      <g>
       <use xlink:href="#mc51434b859" x="600.772292" y="79.806871" style="stroke: #000000; stroke-width: 0.8"/>
      </g>
     </g>
    </g>
    <g id="text_31">
     <!-- Conversations -->
     <g transform="translate(591.192604 159.449719) rotate(-90) scale(0.1 -0.1)">
      <use xlink:href="#DejaVuSans-43"/>
      <use xlink:href="#DejaVuSans-6f" transform="translate(69.824219 0)"/>
      <use xlink:href="#DejaVuSans-6e" transform="translate(131.005859 0)"/>
      <use xlink:href="#DejaVuSans-76" transform="translate(194.384766 0)"/>
      <use xlink:href="#DejaVuSans-65" transform="translate(253.564453 0)"/>
      <use xlink:href="#DejaVuSans-72" transform="translate(315.087891 0)"/>
      <use xlink:href="#DejaVuSans-73" transform="translate(356.201172 0)"/>
      <use xlink:href="#DejaVuSans-61" transform="translate(408.300781 0)"/>
      <use xlink:href="#DejaVuSans-74" transform="translate(469.580078 0)"/>
      <use xlink:href="#DejaVuSans-69" transform="translate(508.789062 0)"/>
      <use xlink:href="#DejaVuSans-6f" transform="translate(536.572266 0)"/>
      <use xlink:href="#DejaVuSans-6e" transform="translate(597.753906 0)"/>
      <use xlink:href="#DejaVuSans-73" transform="translate(661.132812 0)"/>
     </g>
    </g>
   </g>
   <g id="line2d_34">
    <path d="M 719.899179 179.368 
L 719.899179 68.208 
" clip-path="url(#p3c5b353e84)" style="fill: none; stroke-dasharray: 3.7,1.6; stroke-dashoffset: 0; stroke: #27251f"/>
   </g>
   <g id="patch_69">
    <path d="M 600.772292 179.368 
L 600.772292 68.208 
" style="fill: none; stroke: #000000; stroke-width: 0.8; stroke-linejoin: miter; stroke-linecap: square"/>
   </g>
   <g id="patch_70">
    <path d="M 849.295625 179.368 
L 849.295625 68.208 
" style="fill: none; stroke: #000000; stroke-width: 0.8; stroke-linejoin: miter; stroke-linecap: square"/>
   </g>
   <g id="patch_71">
    <path d="M 600.772292 179.368 
L 849.295625 179.368 
" style="fill: none; stroke: #000000; stroke-width: 0.8; stroke-linejoin: miter; stroke-linecap: square"/>
   </g>
   <g id="patch_72">
    <path d="M 600.772292 68.208 
L 849.295625 68.208 
" style="fill: none; stroke: #000000; stroke-width: 0.8; stroke-linejoin: miter; stroke-linecap: square"/>
   </g>
   <g id="text_32">
    <!-- High-recall -->
    <g transform="translate(692.745521 48.770625) scale(0.12 -0.12)">
     <use xlink:href="#DejaVuSans-48"/>
     <use xlink:href="#DejaVuSans-69" transform="translate(75.195312 0)"/>
     <use xlink:href="#DejaVuSans-67" transform="translate(102.978516 0)"/>
     <use xlink:href="#DejaVuSans-68" transform="translate(166.455078 0)"/>
     <use xlink:href="#DejaVuSans-2d" transform="translate(229.833984 0)"/>
     <use xlink:href="#DejaVuSans-72" transform="translate(265.917969 0)"/>
     <use xlink:href="#DejaVuSans-65" transform="translate(304.78125 0)"/>
     <use xlink:href="#DejaVuSans-63" transform="translate(366.304688 0)"/>
     <use xlink:href="#DejaVuSans-61" transform="translate(421.285156 0)"/>
     <use xlink:href="#DejaVuSans-6c" transform="translate(482.564453 0)"/>
     <use xlink:href="#DejaVuSans-6c" transform="translate(510.347656 0)"/>
    </g>
    <!-- (N=1793, excluded=1135) -->
    <g transform="translate(644.342396 62.208) scale(0.12 -0.12)">
     <use xlink:href="#DejaVuSans-28"/>
     <use xlink:href="#DejaVuSans-4e" transform="translate(39.013672 0)"/>
     <use xlink:href="#DejaVuSans-3d" transform="translate(113.818359 0)"/>
     <use xlink:href="#DejaVuSans-31" transform="translate(197.607422 0)"/>
     <use xlink:href="#DejaVuSans-37" transform="translate(261.230469 0)"/>
     <use xlink:href="#DejaVuSans-39" transform="translate(324.853516 0)"/>
     <use xlink:href="#DejaVuSans-33" transform="translate(388.476562 0)"/>
     <use xlink:href="#DejaVuSans-2c" transform="translate(452.099609 0)"/>
     <use xlink:href="#DejaVuSans-20" transform="translate(483.886719 0)"/>
     <use xlink:href="#DejaVuSans-65" transform="translate(515.673828 0)"/>
     <use xlink:href="#DejaVuSans-78" transform="translate(575.447266 0)"/>
     <use xlink:href="#DejaVuSans-63" transform="translate(632.876953 0)"/>
     <use xlink:href="#DejaVuSans-6c" transform="translate(687.857422 0)"/>
     <use xlink:href="#DejaVuSans-75" transform="translate(715.640625 0)"/>
     <use xlink:href="#DejaVuSans-64" transform="translate(779.019531 0)"/>
     <use xlink:href="#DejaVuSans-65" transform="translate(842.496094 0)"/>
     <use xlink:href="#DejaVuSans-64" transform="translate(904.019531 0)"/>
     <use xlink:href="#DejaVuSans-3d" transform="translate(967.496094 0)"/>
     <use xlink:href="#DejaVuSans-31" transform="translate(1051.285156 0)"/>
     <use xlink:href="#DejaVuSans-31" transform="translate(1114.908203 0)"/>
     <use xlink:href="#DejaVuSans-33" transform="translate(1178.53125 0)"/>
     <use xlink:href="#DejaVuSans-35" transform="translate(1242.154297 0)"/>
     <use xlink:href="#DejaVuSans-29" transform="translate(1305.777344 0)"/>
    </g>
   </g>
  </g>
  <g id="text_33">
   <!-- First actual violation relative to first combined SE-or-PV prediction — all conversations -->
   <g transform="translate(169.788125 16.318125) scale(0.12 -0.12)">
    <defs>
     <path id="DejaVuSans-62" d="M 3116 1747 
Q 3116 2381 2855 2742 
Q 2594 3103 2138 3103 
Q 1681 3103 1420 2742 
Q 1159 2381 1159 1747 
Q 1159 1113 1420 752 
Q 1681 391 2138 391 
Q 2594 391 2855 752 
Q 3116 1113 3116 1747 
z
M 1159 2969 
Q 1341 3281 1617 3432 
Q 1894 3584 2278 3584 
Q 2916 3584 3314 3078 
Q 3713 2572 3713 1747 
Q 3713 922 3314 415 
Q 2916 -91 2278 -91 
Q 1894 -91 1617 61 
Q 1341 213 1159 525 
L 1159 0 
L 581 0 
L 581 4863 
L 1159 4863 
L 1159 2969 
z
" transform="scale(0.015625)"/>
     <path id="DejaVuSans-53" d="M 3425 4513 
L 3425 3897 
Q 3066 4069 2747 4153 
Q 2428 4238 2131 4238 
Q 1616 4238 1336 4038 
Q 1056 3838 1056 3469 
Q 1056 3159 1242 3001 
Q 1428 2844 1947 2747 
L 2328 2669 
Q 3034 2534 3370 2195 
Q 3706 1856 3706 1288 
Q 3706 609 3251 259 
Q 2797 -91 1919 -91 
Q 1588 -91 1214 -16 
Q 841 59 441 206 
L 441 856 
Q 825 641 1194 531 
Q 1563 422 1919 422 
Q 2459 422 2753 634 
Q 3047 847 3047 1241 
Q 3047 1584 2836 1778 
Q 2625 1972 2144 2069 
L 1759 2144 
Q 1053 2284 737 2584 
Q 422 2884 422 3419 
Q 422 4038 858 4394 
Q 1294 4750 2059 4750 
Q 2388 4750 2728 4690 
Q 3069 4631 3425 4513 
z
" transform="scale(0.015625)"/>
     <path id="DejaVuSans-45" d="M 628 4666 
L 3578 4666 
L 3578 4134 
L 1259 4134 
L 1259 2753 
L 3481 2753 
L 3481 2222 
L 1259 2222 
L 1259 531 
L 3634 531 
L 3634 0 
L 628 0 
L 628 4666 
z
" transform="scale(0.015625)"/>
     <path id="DejaVuSans-50" d="M 1259 4147 
L 1259 2394 
L 2053 2394 
Q 2494 2394 2734 2622 
Q 2975 2850 2975 3272 
Q 2975 3691 2734 3919 
Q 2494 4147 2053 4147 
L 1259 4147 
z
M 628 4666 
L 2053 4666 
Q 2838 4666 3239 4311 
Q 3641 3956 3641 3272 
Q 3641 2581 3239 2228 
Q 2838 1875 2053 1875 
L 1259 1875 
L 1259 0 
L 628 0 
L 628 4666 
z
" transform="scale(0.015625)"/>
     <path id="DejaVuSans-56" d="M 1831 0 
L 50 4666 
L 709 4666 
L 2188 738 
L 3669 4666 
L 4325 4666 
L 2547 0 
L 1831 0 
z
" transform="scale(0.015625)"/>
     <path id="DejaVuSans-2014" d="M 313 1978 
L 6088 1978 
L 6088 1528 
L 313 1528 
L 313 1978 
z
" transform="scale(0.015625)"/>
    </defs>
    <use xlink:href="#DejaVuSans-46"/>
    <use xlink:href="#DejaVuSans-69" transform="translate(50.269531 0)"/>
    <use xlink:href="#DejaVuSans-72" transform="translate(78.052734 0)"/>
    <use xlink:href="#DejaVuSans-73" transform="translate(119.166016 0)"/>
    <use xlink:href="#DejaVuSans-74" transform="translate(171.265625 0)"/>
    <use xlink:href="#DejaVuSans-20" transform="translate(210.474609 0)"/>
    <use xlink:href="#DejaVuSans-61" transform="translate(242.261719 0)"/>
    <use xlink:href="#DejaVuSans-63" transform="translate(303.541016 0)"/>
    <use xlink:href="#DejaVuSans-74" transform="translate(358.521484 0)"/>
    <use xlink:href="#DejaVuSans-75" transform="translate(397.730469 0)"/>
    <use xlink:href="#DejaVuSans-61" transform="translate(461.109375 0)"/>
    <use xlink:href="#DejaVuSans-6c" transform="translate(522.388672 0)"/>
    <use xlink:href="#DejaVuSans-20" transform="translate(550.171875 0)"/>
    <use xlink:href="#DejaVuSans-76" transform="translate(581.958984 0)"/>
    <use xlink:href="#DejaVuSans-69" transform="translate(641.138672 0)"/>
    <use xlink:href="#DejaVuSans-6f" transform="translate(668.921875 0)"/>
    <use xlink:href="#DejaVuSans-6c" transform="translate(730.103516 0)"/>
    <use xlink:href="#DejaVuSans-61" transform="translate(757.886719 0)"/>
    <use xlink:href="#DejaVuSans-74" transform="translate(819.166016 0)"/>
    <use xlink:href="#DejaVuSans-69" transform="translate(858.375 0)"/>
    <use xlink:href="#DejaVuSans-6f" transform="translate(886.158203 0)"/>
    <use xlink:href="#DejaVuSans-6e" transform="translate(947.339844 0)"/>
    <use xlink:href="#DejaVuSans-20" transform="translate(1010.71875 0)"/>
    <use xlink:href="#DejaVuSans-72" transform="translate(1042.505859 0)"/>
    <use xlink:href="#DejaVuSans-65" transform="translate(1081.369141 0)"/>
    <use xlink:href="#DejaVuSans-6c" transform="translate(1142.892578 0)"/>
    <use xlink:href="#DejaVuSans-61" transform="translate(1170.675781 0)"/>
    <use xlink:href="#DejaVuSans-74" transform="translate(1231.955078 0)"/>
    <use xlink:href="#DejaVuSans-69" transform="translate(1271.164062 0)"/>
    <use xlink:href="#DejaVuSans-76" transform="translate(1298.947266 0)"/>
    <use xlink:href="#DejaVuSans-65" transform="translate(1358.126953 0)"/>
    <use xlink:href="#DejaVuSans-20" transform="translate(1419.650391 0)"/>
    <use xlink:href="#DejaVuSans-74" transform="translate(1451.4375 0)"/>
    <use xlink:href="#DejaVuSans-6f" transform="translate(1490.646484 0)"/>
    <use xlink:href="#DejaVuSans-20" transform="translate(1551.828125 0)"/>
    <use xlink:href="#DejaVuSans-66" transform="translate(1583.615234 0)"/>
    <use xlink:href="#DejaVuSans-69" transform="translate(1618.820312 0)"/>
    <use xlink:href="#DejaVuSans-72" transform="translate(1646.603516 0)"/>
    <use xlink:href="#DejaVuSans-73" transform="translate(1687.716797 0)"/>
    <use xlink:href="#DejaVuSans-74" transform="translate(1739.816406 0)"/>
    <use xlink:href="#DejaVuSans-20" transform="translate(1779.025391 0)"/>
    <use xlink:href="#DejaVuSans-63" transform="translate(1810.8125 0)"/>
    <use xlink:href="#DejaVuSans-6f" transform="translate(1865.792969 0)"/>
    <use xlink:href="#DejaVuSans-6d" transform="translate(1926.974609 0)"/>
    <use xlink:href="#DejaVuSans-62" transform="translate(2024.386719 0)"/>
    <use xlink:href="#DejaVuSans-69" transform="translate(2087.863281 0)"/>
    <use xlink:href="#DejaVuSans-6e" transform="translate(2115.646484 0)"/>
    <use xlink:href="#DejaVuSans-65" transform="translate(2179.025391 0)"/>
    <use xlink:href="#DejaVuSans-64" transform="translate(2240.548828 0)"/>
    <use xlink:href="#DejaVuSans-20" transform="translate(2304.025391 0)"/>
    <use xlink:href="#DejaVuSans-53" transform="translate(2335.8125 0)"/>
    <use xlink:href="#DejaVuSans-45" transform="translate(2399.289062 0)"/>
    <use xlink:href="#DejaVuSans-2d" transform="translate(2462.472656 0)"/>
    <use xlink:href="#DejaVuSans-6f" transform="translate(2500.431641 0)"/>
    <use xlink:href="#DejaVuSans-72" transform="translate(2561.613281 0)"/>
    <use xlink:href="#DejaVuSans-2d" transform="translate(2596.351562 0)"/>
    <use xlink:href="#DejaVuSans-50" transform="translate(2632.435547 0)"/>
    <use xlink:href="#DejaVuSans-56" transform="translate(2692.738281 0)"/>
    <use xlink:href="#DejaVuSans-20" transform="translate(2761.146484 0)"/>
    <use xlink:href="#DejaVuSans-70" transform="translate(2792.933594 0)"/>
    <use xlink:href="#DejaVuSans-72" transform="translate(2856.410156 0)"/>
    <use xlink:href="#DejaVuSans-65" transform="translate(2895.273438 0)"/>
    <use xlink:href="#DejaVuSans-64" transform="translate(2956.796875 0)"/>
    <use xlink:href="#DejaVuSans-69" transform="translate(3020.273438 0)"/>
    <use xlink:href="#DejaVuSans-63" transform="translate(3048.056641 0)"/>
    <use xlink:href="#DejaVuSans-74" transform="translate(3103.037109 0)"/>
    <use xlink:href="#DejaVuSans-69" transform="translate(3142.246094 0)"/>
    <use xlink:href="#DejaVuSans-6f" transform="translate(3170.029297 0)"/>
    <use xlink:href="#DejaVuSans-6e" transform="translate(3231.210938 0)"/>
    <use xlink:href="#DejaVuSans-20" transform="translate(3294.589844 0)"/>
    <use xlink:href="#DejaVuSans-2014" transform="translate(3326.376953 0)"/>
    <use xlink:href="#DejaVuSans-20" transform="translate(3426.376953 0)"/>
    <use xlink:href="#DejaVuSans-61" transform="translate(3458.164062 0)"/>
    <use xlink:href="#DejaVuSans-6c" transform="translate(3519.443359 0)"/>
    <use xlink:href="#DejaVuSans-6c" transform="translate(3547.226562 0)"/>
    <use xlink:href="#DejaVuSans-20" transform="translate(3575.009766 0)"/>
    <use xlink:href="#DejaVuSans-63" transform="translate(3606.796875 0)"/>
    <use xlink:href="#DejaVuSans-6f" transform="translate(3661.777344 0)"/>
    <use xlink:href="#DejaVuSans-6e" transform="translate(3722.958984 0)"/>
    <use xlink:href="#DejaVuSans-76" transform="translate(3786.337891 0)"/>
    <use xlink:href="#DejaVuSans-65" transform="translate(3845.517578 0)"/>
    <use xlink:href="#DejaVuSans-72" transform="translate(3907.041016 0)"/>
    <use xlink:href="#DejaVuSans-73" transform="translate(3948.154297 0)"/>
    <use xlink:href="#DejaVuSans-61" transform="translate(4000.253906 0)"/>
    <use xlink:href="#DejaVuSans-74" transform="translate(4061.533203 0)"/>
    <use xlink:href="#DejaVuSans-69" transform="translate(4100.742188 0)"/>
    <use xlink:href="#DejaVuSans-6f" transform="translate(4128.525391 0)"/>
    <use xlink:href="#DejaVuSans-6e" transform="translate(4189.707031 0)"/>
    <use xlink:href="#DejaVuSans-73" transform="translate(4253.085938 0)"/>
   </g>
  </g>
 </g>
 <defs>
  <clipPath id="pf7353ab46d">
   <rect x="46.965625" y="68.208" width="248.523333" height="111.16"/>
  </clipPath>
  <clipPath id="p178e638783">
   <rect x="323.868958" y="68.208" width="248.523333" height="111.16"/>
  </clipPath>
  <clipPath id="p3c5b353e84">
   <rect x="600.772292" y="68.208" width="248.523333" height="111.16"/>
  </clipPath>
 </defs>
</svg>
